<?xml version="1.0" encoding="utf-8"?>
<!-- Generator: Adobe Illustrator 19.2.0, SVG Export Plug-In . SVG Version: 6.00 Build 0)  -->
<svg version="1.1" xmlns="http://www.w3.org/2000/svg" xmlns:xlink="http://www.w3.org/1999/xlink" x="0px" y="0px"
	 viewBox="0 0 400 400" style="enable-background:new 0 0 400 400;" xml:space="preserve">
<style type="text/css">
	.st0{fill:#282828;}
	.st1{fill:#5E5F5F;}
	.st2{fill:#262626;}
	.st3{fill:#EFEFEF;}
	.st4{fill:#383838;}
	.st5{fill:url(#XMLID_13_);}
	.st6{fill:url(#XMLID_25_);}
	.st7{fill:#FFFFFF;}
	.st8{clip-path:url(#XMLID_26_);}
	.st9{fill:#C1C1C0;}
	.st10{fill:#B7B7B7;}
	.st11{clip-path:url(#XMLID_28_);}
	.st12{fill:#6B6B6B;}
	.st13{fill:#BABABA;}
	.st14{clip-path:url(#XMLID_34_);}
</style>
<g id="Legs">
	<path id="XMLID_10_" class="st0" d="M345.7,240.4h-288v16.2v9.4v35.3c0,6.5,5.2,11.8,11.6,11.8h17.4c6.4,0,11.6-5.3,11.6-11.8
		v-40.6c0-4.5,3.6-8.2,8.1-8.2h192.4c3.6,0,6.4,2.9,6.4,6.5v42.2c0,6.5,5.2,11.8,11.6,11.8h17.4c6.4,0,11.6-5.3,11.6-11.8v-38.6
		v-6.2V240.4z"/>
</g>
<g id="Headboard">
	<path id="XMLID_40_" class="st0" d="M281.7,59.5C281.7,59.5,281.7,59.5,281.7,59.5c-1-6.2-5.7-11-11.4-11H133.2
		c-5.1,0-9.5,3.9-11,9.2c-0.1,0.7-0.3,1.3-0.4,2c-4.2,18.2-18.6,31.6-35.7,31.6v32.3v0.4v3.1c0,2.6,2.1,4.8,4.7,4.8
		c1.5,0,2.7,1.2,2.7,2.7V165c0,4.4,3.9,8,8.7,8h13.1c4.8,0,8.7-3.6,8.7-8v-27.5c0-3.1,2.7-5.5,6.1-5.5h144.6c2.7,0,4.8,2,4.8,4.4
		V165c0,4.4,3.9,8,8.7,8h13.1c4.8,0,8.7-3.6,8.7-8v-30.3c0-1.5,1.2-2.7,2.7-2.7h0c2.6,0,4.7-2.1,4.7-4.8v-3.1v-0.4V91.3
		C300.3,91.3,285.9,77.8,281.7,59.5z"/>
</g>
<g id="Platform">
	<polygon id="XMLID_1_" class="st0" points="86.1,127.2 57.6,240.4 345.7,240.4 317.5,127.2 	"/>
</g>
<g id="Bed">
	<path id="XMLID_14_" class="st1" d="M351.7,245.8l8.6,30.8c1.5-1.2,2.5-3.1,2.2-5.3l-7.1-61.9c0-1.9-0.4-3.7-1.2-5.4l-36.7-78.7
		H86.2L49,204c-0.8,1.7-1.2,3.5-1.2,5.4l-8.2,61.8c-0.3,1.9,0.4,3.7,1.7,4.9l8.5-30.2L46.5,278c5,0.8,25.6,3.4,45.8-0.2
		c23.3-4.1,52.4,1.1,88,1.8c35.4,0.8,68.1-4.2,98-6.6c26.5-2.2,67.5,3.2,76.6,4.5"/>
</g>
<g id="Details">
	<path id="XMLID_57_" class="st2" d="M361.8,274.9l-12.7-47.2l3.2,21.9l8.1,27C361,276.1,361.4,275.6,361.8,274.9z"/>
	<path id="XMLID_30_" class="st2" d="M52.4,227.8l-12.5,46.3c0.3,0.8,0.8,1.5,1.3,2l8-26.5L52.4,227.8z"/>
	<path id="XMLID_38_" class="st0" d="M151.9,177.7c5.4,1,8.4,2.5,8.8,4.3c0.2,0.8,1.8,1.5,3.9,1.4c0,0,0.1,0,0.1,0c0,0,0.1,0,0.1,0
		c2,0.1,3.6-0.6,3.7-1.4c0.3-1.8,3.1-3.4,8.4-4.3c4.2-1,3.7-2.1,2.6-3c-0.8-0.7-2.8-1.7-5.1-1.5c1.4-0.6,1.9-2.6-2.6-3.9
		c-2.4-0.7-5.9-0.4-7.9,0.9c-2.1-1.3-5.6-1.6-8-0.9c-4.4,1.3-3.6,3.3-2.2,3.9c-2.3-0.1-4.2,0.8-4.9,1.5
		C148,175.6,147.6,176.7,151.9,177.7z"/>
	<path id="XMLID_8_" class="st0" d="M180.1,129.9c-1.1-1.4-4.5-1.7-9.8-1.3c2.1-0.9,1-2.1-1.7-2.2c-2.6-0.1-7-0.1-13.3,2.6
		c-1.4,0.8-4,0.5-1.8-0.5c1.9-0.8,3-1.8,10.4-3.2h-29c5.6,1.4,5.4,2.4,6.3,3.2c1,1-2,1.3-2.4,0.5c-2.9-2.6-7.2-2.7-10-2.6
		c-2.9,0.2-5.5,1.4-4.6,2.2c-4.8-0.4-8.5-0.1-11.4,1.3c-3.5,1.9,0.3,2.8,7.7,3c-5.1,0.8-4.4,2.7,2.7,2.8c10.5,0.2,10.6,0.9,13.2,1.7
		c0.9,0.3,1.4,0.6,1.5,0.9l-0.3,0.4c-0.3,0.1-0.9,0.1-1.6-0.2c-4.7-1.7-11.3-1.6-13.6-0.5c-2.4,1.1-2.2,2,0.8,3
		c-5.3,0.6-7,3,0.9,2.9c4.5,0.1,7.4,0.5,9.3,1l-2.7,4c0,0-0.1,0-0.1,0c0,0.1-0.1,0.2-0.1,0.3l-0.5,0.7c-1.4,1.5-5,2.7-10.7,3.6
		c-4.8,0.9-5.3,1.9-5.1,2.8c0.1,0.7,1.3,1.6,3.7,1.5c-1.9,0.6-4.3,2.7-0.8,4.2c1,0.5,2.7,0.5,4.5,0.3l-0.2,0.3
		c-1.2,0.1-2.5,0.2-4.1,0.3c-4.6-0.1-6,1.6-3.3,2c-3,0.7-4,1.4-3.7,2.3c0.2,0.8,3.8,1,8.1-0.1l-0.6,0.9c-1.9,0.6-3.3,1-9.6,1.2
		c-4.9,0.1-7.8,1.7-5.3,2.5c-5.4,0.2-9.4,1.1-9.8,3c0,1.5,2.3,1.8,6.5,1.3c-2,0.9-1.8,2.3,0.1,2.5c1.9,0.2,5.4,0.1,11.2-2.9
		c0.8-0.6,1.9-0.6,2-0.3l-0.4,0.5c-0.1,0.1-0.3,0.2-0.5,0.3c-1.9,1-3.2,2.4-12.3,4.4c-5.2,1.3-6,2.3-6.2,3.3c-0.1,0.7,0.6,1.6,3,1.3
		c-2.1,0.7-5.4,3.1-2.4,4.2c1.8,0.8,7-0.3,11-2.5l-3,4.4c-1,0.6-2.1,1.2-3.4,1.9c-4,2.3-6.6,4.1-5.2,4.7c0.9,0.5,3.1,0,3.9-0.5
		c-1.3,0.6-3.8,2.5-2,3c0.2,0,0.3,0.1,0.5,0.1c0,0-6,8.2-6.1,9.1c-0.1,0.7-0.1,28.6,0,40.3c0,2.8,2.3,5.1,5.1,5.1h0
		c2.8,0,5.1-2.3,5.1-5.1c-0.1-11.7-0.2-39.5,0-40.3c0.2-1.1,5.7-9,5.7-9c0.3,0,0.6-0.1,1-0.1c2.5-0.5,2.4-2.4,1.9-3
		c0.3,0.4,1.8,0.9,3.4,0.5c2.1-0.6,1.9-2.4,0.8-4.7c-0.5-0.8-0.9-1.5-1-2.3l2.7-4.4c0.9,2.4,4.8,3.7,7.8,2.8
		c4.4-1.2,4.2-3.5,3.1-4.2c2,0.3,3.9-0.5,4.7-1.3c1-0.9,1.5-2-1.9-3.3c-6.5-2-6-3.4-6.6-4.4c-0.6-1,1.7-1.4,1.8-0.5
		c1.9,3,5.3,3.1,7.4,2.9c2.2-0.2,4.2-1.6,3.4-2.5c3.6,0.4,6.3,0.2,8.2-1.3c2.1-1.9-0.7-2.8-5.9-3c3.4-0.8,2.7-2.4-2.1-2.5
		c-6.4-0.1-7-0.6-8.3-1.3l0.5-0.8c2.9,1.2,6.9,1,8.2,0.2c1.5-0.9,1.3-1.6-0.7-2.3c3.2-0.4,4-2.1-0.7-2c-1.7-0.1-2.9-0.2-4-0.3
		l0.1-0.2c1.5,0.2,3.2,0.1,4.9-0.3c5.4-1.4,5.7-3.6,4.6-4.2c2.3,0.1,4.6-0.8,5.7-1.5c1.4-0.9,2.2-1.9-1.4-2.8
		c-4.5-0.9-6.5-2.1-6-3.6l0.5-0.7c0.1-0.1,0.2-0.2,0.3-0.3c0,0-0.1,0-0.1,0l2.5-4c2.5-0.5,5.9-0.8,10.6-1c7.8,0.1,9.2-2.3,4.6-2.9
		c4.4-1,5.7-1.9,4.7-3c-0.9-1.1-7.3-1.2-14.2,0.5c-1.1,0.3-1.7,0.3-1.9,0.2l0.3-0.4c0.5-0.3,1.3-0.6,2.6-0.9
		c3.6-0.8,4.6-1.5,15.4-1.7c7.3-0.1,10.4-1.9,6.3-2.8C176.2,132.7,181.2,131.7,180.1,129.9z"/>
	<path id="XMLID_5_" class="st0" d="M301,200.4c0.3,0,0.5-0.1,0.8-0.1c1.8-0.5-1-2.4-2.3-3c0.9,0.4,3.1,0.9,4,0.5
		c1.3-0.6-1.5-2.4-5.7-4.7c-1.6-0.8-3-1.5-4.2-2.3l-3.4-4.4c4.2,2.4,9.9,3.7,11.7,2.8c2.8-1.2-0.7-3.5-2.8-4.2
		c2.5,0.3,3.1-0.5,2.9-1.3c-0.3-0.9-1.2-2-6.5-3.3c-9.3-2-10.7-3.4-12.7-4.4c-2-1-0.3-1.4,1.1-0.5c6.1,3,9.5,3.1,11.5,2.9
		c1.9-0.2,2-1.6-0.1-2.5c4.2,0.4,6.5,0.2,6.4-1.3c-0.5-1.9-4.6-2.8-10-3c2.3-0.8-0.7-2.4-5.6-2.5c-6.6-0.1-7.9-0.6-10.1-1.3
		l-0.6-0.8c4.6,1.2,8.3,1,8.4,0.2c0.2-0.9-0.9-1.6-4-2.3c2.6-0.4,1-2.1-3.5-2c-1.7-0.1-3.2-0.2-4.4-0.3l-0.2-0.2
		c1.8,0.2,3.5,0.1,4.4-0.3c3.4-1.4,0.8-3.6-1.2-4.2c2.4,0.1,3.5-0.8,3.5-1.5c0.1-0.9-0.4-1.9-5.3-2.8c-5.7-0.9-9.5-2.1-11-3.6
		l-0.6-0.7c-0.1-0.1-0.1-0.2-0.1-0.3c0,0-0.1,0-0.1,0l-3.1-4c1.9-0.5,4.8-0.8,9.2-1c7.9,0.1,6-2.3,0.7-2.9c3-1,3.1-1.9,0.6-3
		c-2.4-1.1-9-1.2-13.6,0.5c-0.7,0.3-1.2,0.3-1.6,0.2l-0.3-0.4c0.1-0.3,0.5-0.6,1.4-0.9c2.5-0.8,2.5-1.5,13-1.7
		c7.2-0.1,7.7-1.9,2.5-2.8c7.4-0.2,11.1-1.1,7.4-3c-3.1-1.4-6.8-1.7-11.5-1.3c0.9-0.9-1.9-2.1-4.8-2.2c-2.8-0.1-7.1-0.1-9.7,2.6
		c-0.3,0.8-3.3,0.5-2.4-0.5c0.8-0.8,0.5-1.8,6-3.2h-29c7.5,1.4,8.7,2.4,10.7,3.2c2.3,1-0.2,1.3-1.7,0.5c-6.6-2.6-11-2.7-13.6-2.6
		c-2.6,0.2-3.6,1.4-1.5,2.2c-5.3-0.4-8.7-0.1-9.7,1.3c-0.9,1.9,4.2,2.8,11.8,3c-4,0.8-0.7,2.7,6.6,2.8c10.8,0.2,11.8,0.9,15.5,1.7
		c1.3,0.3,2.2,0.6,2.7,0.9l0.3,0.4c-0.2,0.1-0.8,0.1-1.9-0.2c-7.1-1.7-13.5-1.6-14.3-0.5c-0.9,1.1,0.6,2,5,3c-4.5,0.6-2.8,3,4.9,2.9
		c4.7,0.1,8.1,0.5,10.7,1l2.9,4c0,0-0.1,0-0.1,0c0.1,0.1,0.2,0.2,0.3,0.3l0.5,0.7c0.7,1.5-1.2,2.7-5.7,3.6c-3.6,0.9-2.6,1.9-1.2,2.8
		c1.1,0.7,3.6,1.6,5.8,1.5c-1.1,0.6-0.5,2.7,5,4.2c1.7,0.5,3.4,0.5,4.9,0.3l0.2,0.3c-1,0.1-2.2,0.2-3.7,0.3c-4.7-0.1-3.8,1.6-0.5,2
		c-1.9,0.7-2,1.4-0.5,2.3c1.4,0.8,5.2,1,8-0.1l0.6,0.9c-1.1,0.6-1.9,1-8,1.2c-4.8,0.1-5.4,1.7-1.9,2.5c-5.1,0.2-7.9,1.1-5.6,3
		c2,1.5,4.8,1.8,8.4,1.3c-0.7,0.9,1.4,2.3,3.6,2.5c2.2,0.2,5.5,0.1,7.1-2.9c0-0.6,1-0.6,1.5-0.3l0.4,0.5c0,0.1,0,0.2-0.1,0.3
		c-0.5,1,0.1,2.4-6.2,4.4c-3.3,1.3-2.7,2.3-1.6,3.3c0.8,0.7,2.8,1.6,4.8,1.3c-1.1,0.7-1.1,3.1,3.5,4.2c2.9,0.8,6.6-0.3,7.4-2.5
		l3.2,4.4c-0.1,0.6-0.4,1.2-0.8,1.9c-0.8,2.3-0.9,4.1,1.3,4.7c1.6,0.5,3,0,3.3-0.5c-0.4,0.6-0.4,2.5,2.2,3c0.2,0,0.4,0.1,0.6,0.1
		c0,0,6.1,6.8,6.5,9.1c0.4,2.3,0,40.3,0,40.3c0,2.8,2.3,5.1,5.1,5.1l0,0c2.8,0,5.1-2.3,5.1-5.1c0.1-11.6,0.3-39.4,0-40.3
		C306.3,204.8,301,200.4,301,200.4z"/>
	<path id="XMLID_20_" class="st0" d="M216.3,177.7c5.4,1,8.4,2.5,8.8,4.3c0.2,0.8,1.8,1.5,3.9,1.4c0,0,0.1,0,0.1,0c0,0,0.1,0,0.1,0
		c2,0.1,3.6-0.6,3.7-1.4c0.3-1.8,3.1-3.4,8.4-4.3c4.2-1,3.7-2.1,2.6-3c-0.8-0.7-2.8-1.7-5.1-1.5c1.4-0.6,1.9-2.6-2.6-3.9
		c-2.4-0.7-5.9-0.4-7.9,0.9c-2.1-1.3-5.6-1.6-8-0.9c-4.4,1.3-3.6,3.3-2.2,3.9c-2.3-0.1-4.2,0.8-4.9,1.5
		C212.4,175.6,212,176.7,216.3,177.7z"/>
	<path id="XMLID_21_" class="st0" d="M184.1,161.5c5.4,1,8.4,2.5,8.8,4.3c0.2,0.8,1.8,1.5,3.9,1.4c0,0,0.1,0,0.1,0c0,0,0.1,0,0.1,0
		c2,0.1,3.6-0.6,3.7-1.4c0.3-1.8,3.1-3.4,8.4-4.3c4.2-1,3.7-2.1,2.6-3c-0.8-0.7-2.8-1.7-5.1-1.5c1.4-0.6,1.9-2.6-2.6-3.9
		c-2.4-0.7-5.9-0.4-7.9,0.9c-2.1-1.3-5.6-1.6-8-0.9c-4.4,1.3-3.6,3.3-2.2,3.9c-2.3-0.1-4.2,0.8-4.9,1.5
		C180.2,159.5,179.8,160.5,184.1,161.5z"/>
	<path id="XMLID_22_" class="st0" d="M184.1,193.8c5.4,1,8.4,2.5,8.8,4.3c0.2,0.8,1.8,1.5,3.9,1.4c0,0,0.1,0,0.1,0c0,0,0.1,0,0.1,0
		c2,0.1,3.6-0.6,3.7-1.4c0.3-1.8,3.1-3.4,8.4-4.3c4.2-1,3.7-2.1,2.6-3c-0.8-0.7-2.8-1.7-5.1-1.5c1.4-0.6,1.9-2.6-2.6-3.9
		c-2.4-0.7-5.9-0.4-7.9,0.9c-2.1-1.3-5.6-1.6-8-0.9c-4.4,1.3-3.6,3.3-2.2,3.9c-2.3-0.1-4.2,0.8-4.9,1.5
		C180.2,191.7,179.8,192.8,184.1,193.8z"/>
	<g id="XMLID_16_">
		<path id="XMLID_45_" class="st3" d="M259.1,208.7c0,0-11.8,0.1-29.4,0.4c-8.8,0.1-19.1,0.2-30.1,0.3c-11,0.1-22.8,0.2-34.5,0.3
			c-11.8,0.1-23.5,0.3-34.5,0.4c-5.5,0-10.8,0-15.9-0.1c-5.1-0.1-9.8-0.1-14.2-0.3c-4.4-0.1-8.5-0.2-12-0.3
			c-3.6-0.1-6.7-0.2-9.3-0.3c-5.1-0.2-8.1-0.4-8.1-0.4v-0.3c0,0,2.9-0.2,8.1-0.4c2.6-0.1,5.7-0.2,9.3-0.3c3.6-0.1,7.6-0.3,12-0.3
			c4.4-0.1,9.2-0.2,14.2-0.3c5.1-0.1,10.4-0.1,15.9-0.1c11,0,22.8,0.2,34.5,0.4c11.8,0.1,23.5,0.2,34.5,0.3
			c11,0.1,21.3,0.2,30.1,0.3c17.6,0.2,29.4,0.4,29.4,0.4V208.7z"/>
	</g>
</g>
<g id="Pillow_Fold">
	<path id="XMLID_24_" class="st4" d="M329.7,144.8l-8.6-16.1c-1.1-2.1-3.3-3.4-5.6-3.4h-227c-2.4,0-4.7,1.4-5.7,3.6l-8,16.3
		c-0.5,1-0.7,2-0.7,3.1v2.7l2.1-4.4h251.5h2.9C330.3,146.1,330.1,145.4,329.7,144.8z"/>
	<linearGradient id="XMLID_13_" gradientUnits="userSpaceOnUse" x1="75.5042" y1="150.6669" x2="74.5169" y2="146.9821">
		<stop  offset="0" style="stop-color:#353635"/>
		<stop  offset="1" style="stop-color:#0D0D0D"/>
	</linearGradient>
	<path id="XMLID_29_" class="st5" d="M74,148.3v2.7l2.1-4.4c0,0-2,0-2.1,1C74,147.7,74,147.9,74,148.3z"/>
	<path id="XMLID_31_" class="st4" d="M327.6,146.7l3.2,6.8v-4.7c0-0.7-0.1-1.4-0.3-2.1H327.6z"/>
	<linearGradient id="XMLID_25_" gradientUnits="userSpaceOnUse" x1="328.4052" y1="152.9273" x2="329.9781" y2="147.057">
		<stop  offset="0" style="stop-color:#353635"/>
		<stop  offset="1" style="stop-color:#0D0D0D"/>
	</linearGradient>
	<path id="XMLID_27_" class="st6" d="M327.6,146.7l3.2,6.8v-4.7c-0.1-1-0.1-1-0.1-1C330.3,146.6,327.6,146.7,327.6,146.7z"/>
</g>
<g id="Pillows">
	<g id="XMLID_11_">
		<path id="XMLID_4_" class="st7" d="M155.7,130.4c-2.1-0.7-3.2-4.2-2.4-6.5c1.4-4.5,3.3-14,8.6-17.5c7.6-5.1,54.8-5.8,59.2-0.9
			c4.4,4.9,12.5,19.6,8.1,23.1C225.2,131.6,170.3,135.6,155.7,130.4z"/>
		<g id="XMLID_9_">
			<defs>
				<path id="XMLID_7_" d="M155.7,130.4c-2.1-0.7-3.2-4.2-2.4-6.5c1.4-4.5,3.3-14,8.6-17.5c7.6-5.1,54.8-5.8,59.2-0.9
					c4.4,4.9,12.5,19.6,8.1,23.1C225.2,131.6,170.3,135.6,155.7,130.4z"/>
			</defs>
			<clipPath id="XMLID_26_">
				<use xlink:href="#XMLID_7_"  style="overflow:visible;"/>
			</clipPath>
			<g id="XMLID_3_" class="st8">
				<polygon id="XMLID_46_" class="st9" points="152.3,139.9 154.2,131.2 150.1,133.5 155.7,127.8 156.9,126.8 161.1,125.1 
					158,125.9 151.5,126.2 155.7,125.4 142.5,123 157.8,125.3 159,124.8 161.9,124.8 149.7,120.6 153.8,121 153.2,120 146.7,117.4 
					156.1,119.3 158.7,119.4 160.4,119.2 157.2,117.4 159.6,117.5 162.8,118 146.1,110.9 155.2,113.6 157.8,113.9 163.8,115.9 
					159.3,113 157.7,111.4 165.3,115 155.1,108.1 167.1,115.3 155.3,105.9 159.8,108.5 159,106.7 162.6,109.4 159.7,104.8 
					164.5,110.3 158,97.4 166.5,113.8 161.9,100.2 162.7,99.6 167.1,111.8 165.1,102 164.3,95.1 166.9,102.8 169.8,113.3 
					169.4,107.9 171,112.9 169.6,101.1 169.9,97.7 172.6,110.6 171.7,99.8 172.6,100.8 173.9,105.2 174.2,101.8 175.5,106.1 
					175.6,100.9 175.5,92.8 176.6,96 178.7,110.1 178.3,97.7 179.2,100.1 180.9,112.4 180.5,98.2 182.2,111.2 182,97.2 183.5,109.2 
					184,106.9 184.6,103.8 184.7,93.4 185.8,99.7 187.1,112 187.2,97.7 188.3,106.9 189,107 189.3,93.7 190.2,101.3 191.1,104.7 
					191.7,98.5 192.4,98.1 193.3,110.2 193.8,93.3 194.6,98.3 195.4,106.4 196.1,92.8 196.8,102.3 197.6,99.5 198.4,94.1 
					199.1,98.2 199.6,111.8 200.4,104.7 201,111.7 202.2,93.8 202.8,98.8 203.1,110.8 204.2,100.6 204.9,101.5 205.6,102.5 
					206,107.3 207.4,97.2 207.1,111.2 209.3,92 209.6,98.2 209.7,105.1 210.7,102.9 211.6,101.2 211.3,109.7 213.9,94.9 
					212.8,108.4 213,111.2 214.5,106.2 215.7,103.5 215.9,105.9 217.8,100.6 218.4,101.6 215.5,113.7 217.7,108.4 217.1,110.5 
					219.4,106.7 226.3,100.7 216.2,110.4 223.8,105.1 214.5,113 231.6,101.3 219.7,110.7 232.1,103.2 218.1,113.3 220.5,112.5 
					226.6,109.6 225.9,110.8 233.7,107.2 218.2,116.8 234.2,108.8 235.9,108.8 222.9,116.5 220.7,118.3 226.5,116.2 228.2,116.2 
					223.4,119.1 230.8,116.7 229.2,118.1 239.1,115.2 231,119.1 231.7,119.6 230.5,120.8 230,121.7 235.1,121.3 228.5,123.4 
					240.2,122.6 228,124.7 232,125.3 225.5,125.4 225.3,125.4 227.8,126.4 232.6,130.2 230.4,130.1 231.6,136.2 229.7,134.9 
					227.9,132.1 224.3,120.5 226.7,134.3 223.5,122.4 223.8,127.4 222.7,125.3 223.6,134.6 223,136 222.2,135.7 219.3,120.9 
					220.1,131.7 218.3,123 218.1,126.8 218.1,133.1 216.7,127.6 217,136.5 216.7,140.3 214.7,128.9 213.9,128.1 213.5,131.4 
					213.3,136.3 212.6,137.3 211,127.4 211.5,140.8 209.4,125.2 209.3,132.5 208.9,137.1 208.1,135.7 206.3,121.8 205.9,126.2 
					205.8,135.3 204.7,128.9 203.8,127.5 203.4,131.3 202,121.8 201.5,123.9 201.6,137.6 199.9,121.6 199.7,131 198.8,126.4 
					198.7,139.9 197.1,122.2 196.9,131.6 196.7,143.2 195.1,123.6 194.4,124.4 194.3,139.9 193,125.2 192.5,130 191.8,132.9 
					191,127.6 190.2,126.2 189.5,125.3 188.8,125.9 188.4,141.2 187.6,137.4 186.8,138.1 185.9,126.7 185.2,124.1 184.5,128.5 
					183.9,139.4 183.1,123.7 182.4,140.7 181.6,143.2 180.9,128.9 180.2,127.1 179.5,127.4 178.6,138.2 178.2,123 177.1,138.4 
					176.7,126.9 175.9,127.7 174.9,138.1 174.5,128.8 173.6,132 173.2,125.1 172.5,125.9 171.7,126.5 171,127.9 170.6,121.9 
					169.5,128.9 167.9,141 168,129.3 166.8,136.1 166.3,132.3 165.5,133 165.1,129.9 163.7,136.1 164.6,123 163.6,125.2 
					162.2,130.5 161,133.5 160.4,132.9 161.5,122.5 157.6,138.8 156.3,140.8 158.6,127.6 157.2,130.2 154.2,137.4 				"/>
			</g>
		</g>
		<path id="XMLID_2_" class="st7" d="M161,127.7c-1.8-0.6-2.7-3.3-2.1-5.2c1.2-3.6,2.8-11.1,7.3-13.9c6.5-4,46.8-4.6,50.5-0.7
			c3.8,3.9,10.7,15.5,6.9,18.3C220.3,128.7,173.5,131.9,161,127.7z"/>
	</g>
	<g id="XMLID_32_">
		<path id="XMLID_41_" class="st10" d="M310.5,137c2.2-0.7,3.3-4.3,2.6-6.7c-1.4-4.7-3.1-14.5-8.4-18.3c-7.7-5.4-56-7.2-60.6-2.3
			c-4.6,5-13.2,19.9-8.8,23.7C239.3,136.8,295.3,142.1,310.5,137z"/>
		<g id="XMLID_35_">
			<defs>
				<path id="XMLID_36_" d="M310.5,137c2.2-0.7,3.3-4.3,2.6-6.7c-1.4-4.7-3.1-14.5-8.4-18.3c-7.7-5.4-56-7.2-60.6-2.3
					c-4.6,5-13.2,19.9-8.8,23.7C239.3,136.8,295.3,142.1,310.5,137z"/>
			</defs>
			<clipPath id="XMLID_28_">
				<use xlink:href="#XMLID_36_"  style="overflow:visible;"/>
			</clipPath>
			<g id="XMLID_37_" class="st11">
				<polygon id="XMLID_47_" class="st12" points="307.2,127.2 310.3,135.5 307.4,132 313.8,137 315.7,136.9 320.5,137.6 
					317.8,135.2 311.6,132.9 316,132.7 302.4,132 318.1,130.3 318.7,128.7 321.3,127.3 308.4,130.1 312.2,128.3 311.3,127.8 
					304.1,128.9 313.4,125.7 315.7,124.4 317,123.2 313.3,123.4 315.4,122 318.2,120.3 300.4,125.4 309.3,121.6 311.5,120.1 
					317.2,117 311.8,118.3 309.5,118.5 316.9,114.1 305.3,119 317.6,111.4 303.8,118.5 307.9,115.1 306,115.6 309.1,112.2 
					304.4,115.3 309.2,109.5 299,120.1 309.9,104.8 301.4,116.7 300.9,116.9 305.4,104.4 301.1,113.6 298.4,120.1 300.2,112.1 
					302.5,101.1 300.3,106.2 300.7,100.9 297.3,112.5 295.9,115.7 297.9,102.3 295.1,113.1 294.6,111.9 294.7,107.1 293.4,110.4 
					293.4,105.8 291.9,110.9 290,119 289.8,115.5 291,101 288.7,113.6 288.3,111 289,98.2 286.7,112.6 287.4,99.2 285.2,113.3 
					285.7,101 284.7,103.3 283.7,106.3 282.1,116.9 281.9,110.3 282.2,97.6 280.4,112.2 280.3,102.7 279.6,102.5 278,116.1 
					277.8,108.2 277.2,104.7 276.2,110.9 275.4,111.3 275.3,98.9 273.8,116.1 273.3,111 272.9,102.6 271.7,116.6 271.3,106.8 
					270.5,109.7 269.6,115.1 269,111 268.5,97 267.6,104.4 267,97.1 266.1,115.5 265.4,110.4 264.7,98.1 264,108.6 263.2,107.8 
					262.5,106.8 261.7,102 261.2,112.3 260,98 260,117.9 259,111.5 258,104.6 257.4,107 256.8,108.8 255.5,100.2 255.8,115.6 
					254,101.8 253,99.1 252.7,104.4 252.3,107.5 251.3,105.2 251.3,110.9 250.5,110.2 247.7,97.8 247.9,103.7 246.6,101.7 
					246.8,106.3 248.7,115.5 243.6,102.1 246.3,111.2 239.3,100.8 252.2,117.4 240.2,107.4 251.2,117.5 236.9,106.9 238.5,109.2 
					243.5,113.9 242.1,113.7 249,119.2 233,109.4 247.9,120 249,121.3 235.5,113.8 232.6,113 237.6,116.8 238.7,118.3 233.3,116.1 
					239.9,120.5 237.8,120.2 246.9,125.5 238.4,122.1 238.5,122.9 236.9,123 235.9,123.3 240.4,125.8 233.6,124 244.7,128.6 
					232.5,125.2 236.2,127.1 229.6,126.2 229.1,127.1 231.7,128.4 237.9,129.8 236.2,130.2 242.2,130.1 240.3,130.2 237.2,131.1 
					227.2,138.5 238.4,129.7 232.7,140.9 235.7,136.6 235.9,139.1 239.2,130.1 240.1,128.9 240.6,129.5 238.1,144.7 241,134.1 
					240.1,143.1 241.5,139.5 243.4,133.3 243.1,139.2 245.3,130.3 246.6,126.6 245.5,138.4 246.1,139.3 247.3,136.2 248.7,131.4 
					249.5,130.5 248.9,140.8 251.4,127.3 250.1,143.4 251.7,136 253,131.5 253.5,133 252.6,147.4 253.8,143.1 255.6,133.9 
					255.6,140.5 256.2,142.1 257.3,138.4 257.1,148.2 258,146.2 260.1,132.3 259.3,148.7 260.9,139.3 261.2,144 263.1,130.4 
					262.3,148.5 263.8,139 265.5,127.2 264.6,147.4 265.4,146.7 267.3,130.9 267,146 268.1,141.2 269,138.2 269.4,143.7 270,145.3 
					270.7,146.2 271.5,145.6 273.1,130.1 273.6,134 274.4,133.4 274.5,145.1 275.1,147.8 276.1,143.3 277.3,132.2 277.4,148.3 
					278.8,131 279.6,128.5 279.8,143 280.5,145 281.2,144.6 282.3,133.6 282.6,149.2 283.7,133.4 284.2,145.2 285,144.3 
					285.9,133.7 286.5,143.2 287.3,139.9 288,146.9 288.7,146.1 289.5,145.4 290.2,143.9 291.1,150 291.7,142.9 292.2,130.4 
					293.2,142.3 293.8,135.2 294.6,139 295.3,138.2 296.2,141.3 296.6,134.8 298,148.2 298.7,145.8 299.1,140.2 299.6,136.9 
					300.3,137.3 302,148 301.1,130.8 301.6,128.4 303.8,142 304.2,139 303.8,131.1 304.1,129.2 307.3,144.1 305.7,131.1 
					308.3,140.8 306.6,130 311.7,147.5 310.1,138.3 				"/>
			</g>
		</g>
		<path id="XMLID_33_" class="st13" d="M305.1,134.2c1.8-0.6,2.8-3.4,2.2-5.3c-1.2-3.7-2.6-11.5-7.2-14.5
			c-6.5-4.3-47.8-5.8-51.7-1.9s-11.3,15.8-7.5,18.7C244.4,133.9,292.2,138.1,305.1,134.2z"/>
	</g>
	<g id="XMLID_12_">
		<path id="XMLID_23_" class="st10" d="M170.5,136.3c2-0.9,2.9-4.4,2-6.7c-1.6-4.4-4-13.8-9.3-17.1c-7.7-4.7-54.1-3-58.2,2.1
			c-4.1,5.1-11.2,20.3-6.7,23.5C102.3,141.2,156.4,142.3,170.5,136.3z"/>
		<g id="XMLID_17_">
			<defs>
				<path id="XMLID_18_" d="M170.5,136.3c2-0.9,2.9-4.4,2-6.7c-1.6-4.4-4-13.8-9.3-17.1c-7.7-4.7-54.1-3-58.2,2.1
					c-4.1,5.1-11.2,20.3-6.7,23.5C102.3,141.2,156.4,142.3,170.5,136.3z"/>
			</defs>
			<clipPath id="XMLID_34_">
				<use xlink:href="#XMLID_18_"  style="overflow:visible;"/>
			</clipPath>
			<g id="XMLID_19_" class="st14">
				<polygon id="XMLID_48_" class="st12" points="166.6,127.2 170.2,134.8 167.2,131.8 173.8,135.8 175.7,135.4 180.4,135.4 
					177.5,133.4 171.3,131.9 175.4,131 162.5,132.5 176.9,128.1 177.6,127.1 180,125.6 167.8,129 171.3,127 170.3,126.6 
					163.6,128.1 172.2,124.4 174.3,122.8 175.4,121.6 171.9,122.1 173.7,120.5 176.3,118.6 159.7,124.9 167.9,120.6 169.8,118.8 
					174.9,115.3 169.9,117 167.7,117.4 174.3,112.4 163.7,118.4 174.4,109.6 162.2,118.1 165.6,114.3 163.9,115 166.2,111.3 
					162.4,115 165.7,108.6 158.6,120.8 164.9,103.9 159.6,116.9 159,117.1 161.4,104.6 158.5,114 156.6,120.5 157.4,112.6 
					158.3,101.9 156.7,107 156.6,101.8 154.4,113.3 153.4,116.5 154,103.5 152.2,114 151.6,112.9 151.2,108.4 150.3,111.6 
					149.8,107.2 148.8,112.2 147.7,120.1 147.2,116.8 147,102.8 145.9,115 145.2,112.6 144.8,100.3 143.7,114.3 143.3,101.3 
					142.3,115.1 141.7,103.2 140.9,105.5 140.2,108.5 139.5,118.7 138.8,112.4 137.9,100.3 137.3,114.4 136.5,105.3 135.7,105.2 
					135.3,118.3 134.4,110.8 133.5,107.5 133,113.5 132.3,114 131.1,102.1 131.1,118.7 130.1,113.9 129,105.9 129,119.3 127.7,110 
					127.2,112.8 126.8,118.1 125.8,114.2 124.1,100.9 123.9,108 122.5,101.2 123.3,118.8 122.2,114 120.3,102.3 120.6,112.4 
					119.8,111.7 118.9,110.8 117.6,106.3 118.1,116.2 115.6,102.7 117.5,121.7 115.9,115.7 114.2,109.2 113.8,111.6 113.4,113.3 
					111.1,105.4 113.3,120 109.8,107.1 108.4,104.6 108.8,109.8 108.9,112.7 107.5,110.8 108.6,116.2 107.8,115.7 101.5,105.1 
					103,110.7 100,110.8 102.9,114.1 109.9,119.8 98.1,112.7 105.3,118.3 94.7,112.6 111.8,123.7 98.5,116.8 110.6,124.3 
					95.4,116.9 97.2,118.7 102.7,122.3 101.4,122.5 108.6,126.7 92.1,119.8 107.8,127.6 108.9,128.7 95,123.7 92.2,123.4 
					97.5,126.3 98.7,127.5 93.2,126.4 100.3,129.5 98.2,129.6 107.8,132.8 99.1,131.2 99.4,132 97.9,132.4 97,132.9 101.9,134 
					95.2,134.3 106.6,134.4 94.6,136.2 98.7,136 93.1,139.3 93.9,141 96.9,140.2 100.2,135.2 100.1,136.8 102,131.3 102.1,133.2 
					102.2,136.4 101.2,148.3 103.8,134.8 103,146.9 104.4,142.1 104.9,144.4 106.5,135.4 107.3,134.2 108,134.6 107.5,149.4 
					109.1,139 109.2,147.7 110.2,144 111.3,138 111.7,143.6 112.9,134.9 113.8,131.3 114,142.6 114.6,143.5 115.5,140.4 
					116.4,135.6 117.2,134.7 117.5,144.6 118.7,131.5 118.9,146.9 119.9,139.8 120.7,135.4 121.4,136.8 121.8,150.6 122.6,146.3 
					123.5,137.4 124.2,143.7 124.9,145.2 125.6,141.5 126.3,150.9 127.1,148.9 127.8,135.5 128.6,151.2 129.3,142.1 130,146.6 
					130.7,133.4 131.6,150.8 132.2,141.5 132.8,130.1 133.8,149.5 134.5,148.8 135,133.5 136,147.9 136.6,143.3 137.3,140.4 
					138.2,145.6 139,147 139.7,147.8 140.5,147.2 140.6,132.2 141.5,135.9 142.2,135.2 143.4,146.4 144.3,149 144.8,144.6 
					145,133.9 146.6,149.2 146.4,132.5 146.9,130 148.5,143.9 149.4,145.7 150.1,145.3 150.1,134.6 152,149.5 151.5,134.3 
					153.2,145.5 153.9,144.6 153.6,134.4 155.2,143.4 155.6,140.1 157.1,146.7 157.8,145.8 158.5,145.1 159.1,143.6 160.6,149.3 
					160.4,142.4 159.4,130.5 161.8,141.7 161.5,134.9 162.8,138.4 163.4,137.5 164.7,140.3 164.1,134.1 167.6,146.5 167.9,144.1 
					167.4,138.8 167.3,135.6 168.1,135.8 172,145.4 167.2,129.6 				"/>
			</g>
		</g>
		<path id="XMLID_15_" class="st13" d="M165.2,134c1.7-0.7,2.5-3.5,1.8-5.3c-1.4-3.5-3.3-11-7.9-13.5c-6.6-3.7-46.2-2.2-49.6,1.9
			s-9.6,16.1-5.8,18.7C107,138,153.1,138.7,165.2,134z"/>
	</g>
</g>
</svg>
