<?xml version="1.0" encoding="utf-8"?>
<!-- Generator: Adobe Illustrator 19.2.0, SVG Export Plug-In . SVG Version: 6.00 Build 0)  -->
<svg version="1.1" xmlns="http://www.w3.org/2000/svg" xmlns:xlink="http://www.w3.org/1999/xlink" x="0px" y="0px"
	 viewBox="0 0 400 400" style="enable-background:new 0 0 400 400;" xml:space="preserve">
<style type="text/css">
	.st0{fill:#212121;}
	.st1{fill:#FFFFFF;}
	.st2{fill:#686868;}
	.st3{fill:none;}
</style>
<g id="Layer_1">
</g>
<g id="Layer_2">
	<g id="XMLID_2_">
		<g id="XMLID_3_">
			<rect id="XMLID_9_" x="50.9" y="21.2" class="st0" width="298.2" height="7"/>
		</g>
		<ellipse id="XMLID_4_" class="st0" cx="373.5" cy="24.7" rx="6.6" ry="7.7"/>
		<path id="XMLID_7_" class="st0" d="M44.9,17.4c0-7.6-3.5-7-5.7-7c-3.1,0-3.3,7.7-3,14.3C36,31.3,36.2,39,39.3,39
			c2.2,0,5.7,0.6,5.7-7c0-4.3,11-0.3,11-7.3S44.9,21.7,44.9,17.4z"/>
		<path id="XMLID_5_" class="st0" d="M355.1,32c0,7.6,3.5,7,5.7,7c3.1,0,3.3-7.7,3-14.3c0.3-6.5,0.1-14.3-3-14.3
			c-2.2,0-5.7-0.6-5.7,7c0,4.3-11,0.3-11,7.3S355.1,27.7,355.1,32z"/>
		<ellipse id="XMLID_6_" class="st0" cx="26.5" cy="24.7" rx="6.6" ry="7.7"/>
	</g>
	<path id="XMLID_32_" class="st0" d="M78.3,229.4c-8.3,0-16.1-1.9-22.3-5c-3.7-1.8-2.8,158.6-2.8,158.6c0.3,4.9,12.8,5,18.8,3.9
		c3.3-0.6,5.8-1.8,8.7-3.8c0,0,18,6.3,28.2-2.2c0,0,14.5,6.5,23.8,1.2c6.8-3.8,2.6-14.2-8.4-41.9c-3.2-8.1-4.5-26.3-6-35.5
		c-5.7-34.5-4.6-69.6-11.1-82.3c-0.9,0.2-14,4.3-14.9,4.5C86.3,228.6,80.3,229.4,78.3,229.4z"/>
	<path id="XMLID_46_" class="st1" d="M91.3,221c0-0.1-0.1-0.2-0.1-0.3c-0.1,0.1-0.3,0.3-0.4,0.4C90.9,221.1,91.1,221.1,91.3,221z"/>
	<g id="XMLID_8_">
		<rect id="XMLID_11_" x="333.1" y="35.4" class="st2" width="5" height="285"/>
	</g>
	<path id="XMLID_12_" class="st3" d="M98.7,200.9c0,0,81.2-28.9,114.5-138.9C213.1,62.1,149.3,151.2,98.7,200.9z"/>
	<path id="XMLID_18_" class="st3" d="M151,52.9c0,0-13.7,28.2-33.5,70.2c-10.6,22.6-26.2,46.8-35.1,77.9c0,0,25.7-32,46.1-76.1
		C138.7,103,142.8,79.2,151,52.9z"/>
	<path id="XMLID_19_" class="st3" d="M96.1,52.9c0,0-29.5,55.1-26.3,134.6C69.8,187.5,96.6,124.2,96.1,52.9z"/>
	<path id="XMLID_37_" class="st2" d="M215.4,294.4h4V146.7c-1.3,1.1-2.7,2.2-4,3.2V294.4z"/>
	<path id="XMLID_39_" class="st2" d="M206.4,294.4h4V153.8c-1.3,1-2.7,2-4,3V294.4z"/>
	<path id="XMLID_25_" class="st0" d="M56.6,35c-1.2,15.9-3.8,171,0,175.8c2.3,2.8,10.9,5.6,19,5.8c9.8,0.3,19.5-2.8,19.5-2.8
		s52.2-18.1,108.7-62.4c1.3-1,2.7-2.1,4-3.2c1.7-1.3,3.3-2.7,5-4.1c1.3-1.1,2.7-2.2,4-3.4c10.6-9,60.9-52.5,92.8-105.3L56.6,35z
		 M67.2,185.5C64,106,93.6,50.9,93.6,50.9C94,122.2,67.2,185.5,67.2,185.5z M79.9,198.9c8.9-31,24.5-55.3,35.1-77.9
		c19.8-41.9,33.5-70.2,33.5-70.2c-8.2,26.3-12.4,50.1-22.5,71.9C105.6,166.9,79.9,198.9,79.9,198.9z M96.1,198.9
		c50.6-49.8,114.5-138.9,114.5-138.9C177.3,170,96.1,198.9,96.1,198.9z"/>
	<path id="XMLID_10_" class="st2" d="M328.5,298.5H120.8c1.6,5.8,0.8,14.8,3.7,21.9h204V298.5z"/>
	<rect id="XMLID_1_" x="58.7" y="17.9" class="st0" width="10.9" height="17.5"/>
	<rect id="XMLID_14_" x="88.7" y="17.9" class="st0" width="10.9" height="17.5"/>
	<rect id="XMLID_15_" x="118.7" y="17.9" class="st0" width="10.9" height="17.5"/>
	<rect id="XMLID_20_" x="148.7" y="17.9" class="st0" width="10.9" height="17.5"/>
	<rect id="XMLID_21_" x="178.7" y="17.9" class="st0" width="10.9" height="17.5"/>
	<rect id="XMLID_22_" x="208.7" y="17.9" class="st0" width="10.9" height="17.5"/>
	<rect id="XMLID_23_" x="238.7" y="17.9" class="st0" width="10.9" height="17.5"/>
	<rect id="XMLID_28_" x="268.7" y="17.9" class="st0" width="10.9" height="17.5"/>
	<rect id="XMLID_29_" x="298.7" y="17.9" class="st0" width="10.9" height="17.5"/>
	<path id="XMLID_33_" class="st1" d="M92.8,289.5c0,0,0.6,27.2,13.3,68.5C106.2,358,105.9,333.3,92.8,289.5z"/>
	<path id="XMLID_36_" class="st1" d="M73.7,258.7c0,0-1.9,39.5,7.7,101.5C81.4,360.2,83.5,324.6,73.7,258.7z"/>
</g>
<g id="Layer_3">
</g>
</svg>
