<?xml version="1.0" encoding="utf-8"?>
<!-- Generator: Adobe Illustrator 19.2.0, SVG Export Plug-In . SVG Version: 6.00 Build 0)  -->
<svg version="1.1" xmlns="http://www.w3.org/2000/svg" xmlns:xlink="http://www.w3.org/1999/xlink" x="0px" y="0px"
	 viewBox="0 0 400 400" style="enable-background:new 0 0 400 400;" xml:space="preserve">
<style type="text/css">
	.st0{fill:url(#XMLID_2_);}
	.st1{fill:url(#XMLID_3_);}
	.st2{fill:url(#XMLID_4_);}
	.st3{fill:url(#XMLID_5_);}
	.st4{fill:url(#XMLID_6_);}
	.st5{fill:url(#XMLID_7_);}
	.st6{fill:url(#XMLID_8_);}
	.st7{fill:url(#XMLID_9_);}
	.st8{fill:url(#XMLID_10_);}
	.st9{fill:url(#XMLID_11_);}
	.st10{fill:url(#XMLID_12_);}
	.st11{fill:#171617;}
	.st12{fill:#191919;}
	.st13{fill:url(#XMLID_13_);}
	.st14{fill:#1E1E1E;}
	.st15{fill:#565656;}
	.st16{fill:#7E7F7F;}
	.st17{fill:#1B1B1C;}
	.st18{fill:#262626;}
	.st19{fill:#3A3A3A;}
	.st20{fill:#474648;}
	.st21{fill:url(#XMLID_14_);}
	.st22{fill:url(#XMLID_15_);}
	.st23{fill:url(#XMLID_16_);}
	.st24{fill:url(#XMLID_17_);}
	.st25{fill:url(#XMLID_18_);}
</style>
<g id="Layer_1">
</g>
<g id="Layer_2">
	<g id="XMLID_58_">
		
			<linearGradient id="XMLID_2_" gradientUnits="userSpaceOnUse" x1="157.3087" y1="249.5866" x2="157.3087" y2="161.3675" gradientTransform="matrix(-1 0 0 1 180.1602 0)">
			<stop  offset="0" style="stop-color:#212021"/>
			<stop  offset="0.1771" style="stop-color:#222122"/>
			<stop  offset="0.2896" style="stop-color:#262526"/>
			<stop  offset="0.3842" style="stop-color:#2C2B2C"/>
			<stop  offset="0.4688" style="stop-color:#333333"/>
			<stop  offset="0.5467" style="stop-color:#3D3C3D"/>
			<stop  offset="0.6198" style="stop-color:#494848"/>
			<stop  offset="0.6878" style="stop-color:#565555"/>
			<stop  offset="0.7151" style="stop-color:#5C5A5B"/>
			<stop  offset="0.7948" style="stop-color:#4E4C4D"/>
			<stop  offset="0.8866" style="stop-color:#3E3D3E"/>
			<stop  offset="0.9582" style="stop-color:#343334"/>
			<stop  offset="1" style="stop-color:#303031"/>
		</linearGradient>
		<polygon id="XMLID_43_" class="st0" points="0.5,249.6 45.2,249.6 45.2,161.4 0.5,161.4 		"/>
		<g id="XMLID_45_">
			<g id="XMLID_46_">
				<linearGradient id="XMLID_3_" gradientUnits="userSpaceOnUse" x1="236.5815" y1="172.4012" x2="243.16" y2="172.4012">
					<stop  offset="0" style="stop-color:#343434"/>
					<stop  offset="0.4946" style="stop-color:#212021"/>
					<stop  offset="1" style="stop-color:#262626"/>
				</linearGradient>
				<path id="XMLID_59_" class="st1" d="M242.8,172.5c-0.8,1.2-2.1,0.9-3.5,1.9c-1,0.7-1.7,1.8-2.2,3c-0.2-0.4-0.3-0.7-0.4-1.1
					c-0.6-2.6,0.4-6,2.6-7.4c1.2-0.8,2.3-0.7,3.1-1.4c0.1,0.4,0.2,0.9,0.4,1.4C243.1,170.3,243.4,171.5,242.8,172.5z"/>
				<linearGradient id="XMLID_4_" gradientUnits="userSpaceOnUse" x1="246.8584" y1="238.2262" x2="246.9469" y2="238.2262">
					<stop  offset="0" style="stop-color:#343434"/>
					<stop  offset="0.4946" style="stop-color:#212021"/>
					<stop  offset="1" style="stop-color:#262626"/>
				</linearGradient>
				<path id="XMLID_63_" class="st2" d="M246.9,237.7c0,0.4-0.1,0.8-0.1,1.1C246.9,238.4,246.9,238,246.9,237.7z"/>
				<linearGradient id="XMLID_5_" gradientUnits="userSpaceOnUse" x1="240.445" y1="162.2875" x2="243.16" y2="162.2875">
					<stop  offset="0" style="stop-color:#343434"/>
					<stop  offset="0.4946" style="stop-color:#212021"/>
					<stop  offset="1" style="stop-color:#262626"/>
				</linearGradient>
				<path id="XMLID_171_" class="st3" d="M242.8,167c-0.1,0.2-0.2,0.3-0.4,0.4c-1.3-5-1.9-5.2-2-6.9c0-1.1,0.2-2.2,0.5-3.3
					c0.4,1.1,1,2.7,1.8,6.1C243.1,164.7,243.4,165.9,242.8,167z"/>
				<linearGradient id="XMLID_6_" gradientUnits="userSpaceOnUse" x1="299.1672" y1="155.8177" x2="343.6196" y2="155.8177">
					<stop  offset="0" style="stop-color:#343434"/>
					<stop  offset="0.4946" style="stop-color:#212021"/>
					<stop  offset="1" style="stop-color:#262626"/>
				</linearGradient>
				<path id="XMLID_172_" class="st4" d="M299.2,147c0.5-5.8,10.9-10.9,19.5-10c12.9,1.3,22.2,16.1,24.4,28.6
					c0.6,3.2,0.7,6.3,0.4,9.1c-0.1-1.2-0.2-2.4-0.4-3.6c-2.2-12.4-11.5-27.2-24.4-28.6c-7.4-0.8-16.3,3-18.8,7.7
					C299.4,149.2,299.1,148.1,299.2,147z"/>
				<linearGradient id="XMLID_7_" gradientUnits="userSpaceOnUse" x1="150.2968" y1="116.2075" x2="173.2849" y2="116.2075">
					<stop  offset="0" style="stop-color:#343434"/>
					<stop  offset="0.4946" style="stop-color:#212021"/>
					<stop  offset="1" style="stop-color:#262626"/>
				</linearGradient>
				<path id="XMLID_174_" class="st5" d="M150.4,140.3c-0.6-1.7,2-3.9,4.4-6c9.1-7.9,11.3-9,13.2-10.9c2.9-2.9,3.5-9.7,4.6-23.2
					c0.3-3.4,0.5-6.5,0.6-9.6c0.2,4.7-0.1,9.7-0.6,15.1c-1.1,13.5-1.8,20.3-4.6,23.2c-1.9,2-4.1,3.1-13.2,10.9
					c-0.8,0.7-1.6,1.4-2.3,2.1C151.4,141.5,150.6,141,150.4,140.3z"/>
				<linearGradient id="XMLID_8_" gradientUnits="userSpaceOnUse" x1="62.3876" y1="199.1076" x2="226.9668" y2="199.1076">
					<stop  offset="0" style="stop-color:#343434"/>
					<stop  offset="0.4946" style="stop-color:#212021"/>
					<stop  offset="1" style="stop-color:#262626"/>
				</linearGradient>
				<path id="XMLID_175_" class="st6" d="M85,211.2c39.3-30.7,40.2-43.4,61.2-47.3c14.3-2.6,26.1,2.2,34.4,5.6
					c6.3,2.6,36.6,15,44.6,47.4c1.4,5.9,2,12,1.8,18.1c-0.2-4.3-0.8-8.5-1.8-12.6c-8-32.4-38.2-44.8-44.6-47.4
					c-8.2-3.4-20.1-8.2-34.4-5.6c-21,3.9-21.8,16.5-61.2,47.3c-13.9,10.9-17.5,12.4-22.4,17.7l-0.2-65.5c0,0,0,0.1,0,0.1l0.2,59.8
					C67.5,223.6,71.1,222.1,85,211.2z"/>
				<linearGradient id="XMLID_9_" gradientUnits="userSpaceOnUse" x1="126.918" y1="235.2721" x2="192.0242" y2="235.2721">
					<stop  offset="0" style="stop-color:#343434"/>
					<stop  offset="0.4946" style="stop-color:#212021"/>
					<stop  offset="1" style="stop-color:#262626"/>
				</linearGradient>
				<path id="XMLID_176_" class="st7" d="M127.6,246.6c3.1-15.4,15.7-28.3,30.6-31.6c3.1-0.7,18.6-4.1,27.9,5.6
					c5.1,5.3,6.3,12.6,5.8,19.4c-0.4-5-2.1-9.9-5.8-13.8c-9.3-9.7-24.7-6.3-27.9-5.6c-14.9,3.3-27.6,16.2-30.6,31.6
					c-0.3,1.5-0.5,3-0.6,4.5C126.8,253.4,127,250,127.6,246.6z"/>
				<linearGradient id="XMLID_10_" gradientUnits="userSpaceOnUse" x1="252.29" y1="133.7462" x2="264.5841" y2="133.7462">
					<stop  offset="0" style="stop-color:#343434"/>
					<stop  offset="0.4946" style="stop-color:#212021"/>
					<stop  offset="1" style="stop-color:#262626"/>
				</linearGradient>
				<path id="XMLID_177_" class="st8" d="M261.1,137.5c0.7,0.1,2.3,0.3,3,1.4c0.7,1.1,0.5,2.8-0.2,3.9c-0.2,0.3-0.5,0.6-0.7,0.8
					c-0.7-0.4-1.6-0.5-2.1-0.6c-4.6-0.9-8.7-9.1-8.8-16.3c0-0.9,0.1-1.9,0.2-2.9C253.4,130.3,257.1,136.7,261.1,137.5z"/>
				<linearGradient id="XMLID_11_" gradientUnits="userSpaceOnUse" x1="100.9228" y1="133.0638" x2="109.9803" y2="133.0638">
					<stop  offset="0" style="stop-color:#343434"/>
					<stop  offset="0.4946" style="stop-color:#212021"/>
					<stop  offset="1" style="stop-color:#262626"/>
				</linearGradient>
				<path id="XMLID_178_" class="st9" d="M110,146.5c0,1-0.1,2-0.3,2.9c-0.5-2.4-1.6-4.5-3-8.1c-2.5-6.1-5.7-14.2-5.8-21.6
					c0-1.1,0-2.1,0.2-3.2c0.7,6.7,3.5,13.7,5.6,19.2C108.6,140.6,109.9,142.7,110,146.5z"/>
				<linearGradient id="XMLID_12_" gradientUnits="userSpaceOnUse" x1="246.8565" y1="211.8156" x2="364.1895" y2="211.8156">
					<stop  offset="0" style="stop-color:#343434"/>
					<stop  offset="0.4946" style="stop-color:#212021"/>
					<stop  offset="1" style="stop-color:#262626"/>
				</linearGradient>
				<path id="XMLID_179_" class="st10" d="M247,234.8c-0.1-1.6-0.3-2.8,0.5-3.7c2.3-2.9,10.5,0.2,11.8,0.7c3.4,1.3,4.8,2.5,7.4,3.9
					c5.2,2.9,9.6,3.8,14.6,4.9c8.6,1.8,22.1,1.6,34.8-2.8c2.6-0.9,38.4-13.9,46.4-49.4c0.6-2.8,1.4-6.9,1.6-11.9
					c0.3,7.4-0.7,13.7-1.6,17.5c-8,35.6-43.9,48.6-46.4,49.4c-12.7,4.4-26.2,4.6-34.8,2.8c-5-1.1-9.5-2-14.6-4.9
					c-2.7-1.5-4-2.7-7.4-3.9c-1.4-0.5-9.5-3.6-11.8-0.7c-0.2,0.3-0.4,0.7-0.5,1C247,236.7,247,235.7,247,234.8z"/>
				<path id="XMLID_170_" class="st11" d="M261.5,144.6c-1,0.4-2.1,0.6-2.9,0.6c-1.1,0-1.8-0.3-2.3,0.2c-0.8,0.8,0,2.2-0.7,2.8
					c-0.8,0.7-2.5-0.7-5.8-1.4c-1.8-0.4-3.1-0.6-4.4-0.2c-2.9,0.9-5,4.9-4.9,8.4c0,0.9,0.2,1.4,0.5,2.3c0.4,1.1,1,2.7,1.8,6.1
					c0.4,1.5,0.6,2.7,0,3.7c-0.1,0.2-0.2,0.3-0.4,0.4c0.1,0.4,0.2,0.9,0.4,1.4c0.4,1.5,0.6,2.7,0,3.7c-0.8,1.2-2.1,0.9-3.5,1.9
					c-1,0.7-1.7,1.8-2.2,3c1.4,3.4,5.4,5.2,8.5,5.4c4.7,0.3,10-3.3,10-3.3c0.7-0.5,1.7-1.2,3-1.2c2.3,0.1,3,2.5,5.3,3
					c2.2,0.5,4.7-0.8,6-2.6c1.6-2.1,0.2-3.5,1.2-9.1c0.8-4.7,2.2-6.5,3-7.4c0.6-0.7,1.6-1.7,3-2
					C273.1,153.8,267.9,148.6,261.5,144.6z"/>
				<path id="XMLID_169_" class="st12" d="M158.9,142.7c-1.3,0-2.7-0.1-4.1-0.3c-0.8-0.1-1.6-0.3-2.3-0.5c-1.1-0.3-1.9-0.8-2.1-1.6
					c-0.6-1.7,2-3.9,4.4-6c9.1-7.9,11.3-9,13.2-10.9c2.9-2.9,3.5-9.7,4.6-23.2c0.3-3.4,0.5-6.5,0.6-9.6c-0.2-5.9-1.1-11.4-3.1-16.9
					c-1-2.7-2.2-5.1-4.4-5.8c-3.4-1-7.3,2.7-13.5,8.8c-6.7,6.7-10.1,10-12.3,14.4c-0.3,0.6-2.9,5.9-7.4,10.7c-1,1-2.3,2.3-3.7,2.1
					c-2.1-0.3-3.4-3.8-3.7-4.6c-0.9-2.6-0.3-3.6-1.2-4.6c-1.6-1.9-6.2-0.8-8.4,0c-7.4,2.8-13.5,12.2-14.5,22.1
					c0.7,6.7,3.5,13.7,5.6,19.2c1.9,4.8,3.2,6.8,3.3,10.7c0,1-0.1,2-0.3,2.9c0.2,0.8,0.2,1.7,0.3,2.6c0,2.7-0.6,5-1.6,7.2
					C118.1,146.7,141.5,147.7,158.9,142.7z"/>
				<linearGradient id="XMLID_13_" gradientUnits="userSpaceOnUse" x1="62.4078" y1="212.2077" x2="364.1931" y2="212.2077">
					<stop  offset="0" style="stop-color:#343434"/>
					<stop  offset="0.4946" style="stop-color:#212021"/>
					<stop  offset="1" style="stop-color:#262626"/>
				</linearGradient>
				<path id="XMLID_180_" class="st13" d="M356.5,144.2c-1.6-2.8-12.8-21.4-31.6-25.3c-3.9-0.8-10.6-1.5-18.1-0.5
					c-7.4,1-6.9,2.5-12.5,3c-13.4,1.3-27.6-5.8-29.7-11.6c-0.2-0.6-0.8-2.4-2.3-3c-1.7-0.7-3.8,0.7-4.4,1.2c-4,2.7-5.6,8.5-5.6,13.2
					c0,0.9,0.1,1.8,0.2,2.6c0.9,6.4,4.6,12.8,8.6,13.6c0.7,0.1,2.3,0.3,3,1.4c0.7,1.1,0.5,2.8-0.2,3.9c-0.2,0.3-0.5,0.6-0.7,0.8
					c-0.5,0.4-1.1,0.7-1.7,0.9c6.4,4,11.6,9.3,15.6,15.8c0.2,0,0.5-0.1,0.7-0.1c1.6,0,2.8,1.3,3.7,2.3c3.6,4.2,5.4,8.8,5.6,9.3
					c2.8,7.1,12.9,13,22.1,12.5c8.1-0.4,17.2-6.1,19-14.4c0-0.2,0.1-0.5,0.2-1c0.4-2.2,0.7-7.2-2.3-10c-4.5-4.1-11.4,1.7-19.5-2.3
					c-2.7-1.3-5.4-3.8-6.7-6.4c-0.5-1.1-0.8-2.2-0.7-3.3c0.5-5.8,10.9-10.9,19.5-10c12.9,1.3,22.2,16.1,24.4,28.6
					c0.6,3.2,0.7,6.3,0.4,9.1c-1,12.7-8.3,22-10.2,24.5c-12.2,15.6-33.1,22.1-50.1,18.6c-9.3-1.9-15.8-6.8-28.8-16.5
					c-6.9-5.1-8.4-7.2-29.5-26.9c-15.6-14.5-18.1-16.6-20.9-18.6c-14.7-10.7-23.8-17.4-33.2-15.1c-1.9,0.5-6.4,2-11.9,1.9
					c-17.3,5-40.7,4-50.4,16.7c-1.1,2.5-2.7,4.9-4.5,7.6c-4,6-8.6,12.9-17.4,16c-3.1,1.1-7.8,2.8-13,0.9
					c-8.6-3.1-10.9-13.4-11.1-14.8l0.2,59.8c4.9-5.3,8.5-6.8,22.4-17.7c39.3-30.7,40.2-43.4,61.2-47.3c14.3-2.6,26.1,2.2,34.4,5.6
					c6.3,2.6,36.6,15,44.6,47.4c1.4,5.9,2,12,1.8,18.1c-0.6,15.8-6.8,31.5-18.5,43.1c-3.8,3.7-26.5,26.2-52,16.7
					c-15.4-5.8-28.1-21.1-29.4-38.2c-0.2-3.3-0.1-6.7,0.6-10.1c3.1-15.4,15.7-28.3,30.6-31.6c3.1-0.7,18.6-4.1,27.9,5.6
					c5.1,5.3,6.3,12.6,5.8,19.4c1,11.4-4.5,23.4-6.7,25.2c-0.1,0.1-0.9,0.7-1.6,1.9c-0.1,0.2-0.2,0.4-0.3,0.6
					c-0.8,1.7-1.3,3.9-0.4,5.2c1.5,2.1,6.3,0.8,7.4,0.5c11-3,16.3-17.3,16.7-18.6c1.9-5.2,2.2-10.3,1.9-14.9
					c0.9-12-4.3-21.6-4.7-22.3c-10.3-18.2-32-20.3-35.3-20.7c-20.9-2.1-41.3,9.9-51.5,26.7c-5.8,9.6-8.1,20.3-7.6,31
					c0.8,16.7,8.3,33.1,19.7,44.5c16.8,16.8,40.9,21.5,60.4,17.2c43.9-9.8,55.9-64,56.2-69.4c0.1-2.7,0.6-5.4,0.8-8
					c0-0.4,0-0.8,0.1-1.1c0.1-1,0.1-1.9,0-2.9c-0.1-1.6-0.3-2.8,0.5-3.7c2.3-2.9,10.5,0.2,11.8,0.7c3.4,1.3,4.8,2.5,7.4,3.9
					c5.2,2.9,9.6,3.8,14.6,4.9c8.6,1.8,22.1,1.6,34.8-2.8c2.6-0.9,38.4-13.9,46.4-49.4c0.6-2.8,1.4-6.9,1.6-11.9
					C364.5,167.4,363.2,155.7,356.5,144.2z"/>
			</g>
			<path id="XMLID_166_" class="st14" d="M139.5,91.9c0.2-0.4,0.4-0.7,0.4-0.8c2.2-4.4,5.6-7.7,12.3-14.4c6.2-6.1,10-9.9,13.5-8.8
				c2.2,0.7,3.4,3.1,4.4,5.8c2.1,5.5,2.9,11,3.1,16.9c-0.1,3-0.3,6.2-0.6,9.6c-1.1,13.5-1.8,20.3-4.6,23.2c-1.6,1.6-3.3,2.6-8.8,7.2
				c-12.7,6.6-27.4,7.7-33.2,2.6c4.3-7.5,8.5-18.4,11.4-30.7C138.2,98.8,138.9,95.3,139.5,91.9z"/>
			<path id="XMLID_247_" class="st14" d="M109.7,149.5c0.2-0.9,0.3-1.9,0.3-2.9c0-3.8-1.3-5.9-3.3-10.7c-2.2-5.5-5-12.5-5.6-19.2
				c1-9.9,7.1-19.3,14.5-22.1c2.1-0.8,6.7-1.9,8.4,0c0.9,1,0.2,2,1.2,4.6c0.3,0.9,1.6,4.3,3.7,4.6c0.9,0.1,1.7-0.3,2.5-0.9
				c-2.1,23.8-13,47.2-21.4,51.1c0.1-0.6,0.1-1.2,0.1-1.9C110,151.1,109.9,150.3,109.7,149.5z"/>
			<path id="XMLID_47_" class="st15" d="M150.2,136.3c0.8,0.7,9.2-5.5,14.6-16c9.5-18.5,2.6-37.1-1.4-41.8c-0.5-0.6-2.1-2.5-3.1-2.1
				c-0.2,0.1-1.4,0.6-1,5.9c0.6,9,4.3,15.5,5.6,19.5C169.6,117.1,148.9,135.2,150.2,136.3z"/>
			<path id="XMLID_48_" class="st16" d="M152.4,130.2c0.4,0.4,4.6-3.4,7.3-9.9c4.7-11.5,1.3-22.9-0.7-25.8c-0.3-0.4-1-1.5-1.6-1.3
				c-0.1,0.1-0.7,0.4-0.5,3.7c0.3,5.6,2.2,9.6,2.8,12.1C162,118.3,151.7,129.5,152.4,130.2z"/>
			<path id="XMLID_49_" class="st16" d="M114.1,147.2c-0.4,0.2-7.1-10.1-8.8-25.1c-1.3-11.7,1.4-17,2.3-18.6
				c0.4-0.7,5.2-8.8,10.4-8.1c1.8,0.2,3.6,1.4,3.5,2.3c-0.1,1.3-4,1.1-7.2,3c-4.4,2.7-5.6,8.2-6.3,11.1
				C104.6,128,114.6,147,114.1,147.2z"/>
			<path id="XMLID_183_" class="st17" d="M242.8,172.5c-0.8,1.2-2.1,0.9-3.5,1.9c-1,0.7-1.7,1.8-2.2,3c-0.2-0.4-0.3-0.7-0.4-1.1
				c-0.6-2.6,0.4-6,2.6-7.4c1.2-0.8,2.3-0.7,3.1-1.4c0.1,0.4,0.2,0.9,0.4,1.4C243.1,170.3,243.4,171.5,242.8,172.5z"/>
			<path id="XMLID_184_" class="st17" d="M242.8,167c-0.1,0.2-0.2,0.3-0.4,0.4c-1.3-5-1.9-5.2-2-6.9c0-1.1,0.2-2.2,0.5-3.3
				c0.4,1.1,1,2.7,1.8,6.1C243.1,164.7,243.4,165.9,242.8,167z"/>
			<path id="XMLID_185_" class="st17" d="M299.2,147c0.5-5.8,10.9-10.9,19.5-10c12.9,1.3,22.2,16.1,24.4,28.6
				c0.6,3.2,0.7,6.3,0.4,9.1c-0.1-1.2-0.2-2.4-0.4-3.6c-2.2-12.4-11.5-27.2-24.4-28.6c-7.4-0.8-16.3,3-18.8,7.7
				C299.4,149.2,299.1,148.1,299.2,147z"/>
			<path id="XMLID_186_" class="st17" d="M150.4,140.3c-0.6-1.7,2-3.9,4.4-6c9.1-7.9,11.3-9,13.2-10.9c2.9-2.9,3.5-9.7,4.6-23.2
				c0.3-3.4,0.5-6.5,0.6-9.6c0.2,4.7-0.1,9.7-0.6,15.1c-1.1,13.5-1.8,20.3-4.6,23.2c-1.9,2-4.1,3.1-13.2,10.9
				c-0.8,0.7-1.6,1.4-2.3,2.1C151.4,141.5,150.6,141,150.4,140.3z"/>
			<path id="XMLID_187_" class="st17" d="M85,211.2c39.3-30.7,40.2-43.4,61.2-47.3c14.3-2.6,26.1,2.2,34.4,5.6
				c6.3,2.6,36.6,15,44.6,47.4c1.4,5.9,2,12,1.8,18.1c-0.2-4.3-0.8-8.5-1.8-12.6c-8-32.4-38.2-44.8-44.6-47.4
				c-8.2-3.4-20.1-8.2-34.4-5.6c-21,3.9-21.8,16.5-61.2,47.3c-13.9,10.9-17.5,12.4-22.4,17.7l-0.2-65.5c0,0,0,0.1,0,0.1l0.2,59.8
				C67.5,223.6,71.1,222.1,85,211.2z"/>
			<path id="XMLID_188_" class="st17" d="M127.6,246.6c3.1-15.4,15.7-28.3,30.6-31.6c3.1-0.7,18.6-4.1,27.9,5.6
				c5.1,5.3,6.3,12.6,5.8,19.4c-0.4-5-2.1-9.9-5.8-13.8c-9.3-9.7-24.7-6.3-27.9-5.6c-14.9,3.3-27.6,16.2-30.6,31.6
				c-0.3,1.5-0.5,3-0.6,4.5C126.8,253.4,127,250,127.6,246.6z"/>
			<path id="XMLID_189_" class="st17" d="M261.1,137.5c0.7,0.1,2.3,0.3,3,1.4c0.7,1.1,0.5,2.8-0.2,3.9c-0.2,0.3-0.5,0.6-0.7,0.8
				c-0.7-0.4-1.6-0.5-2.1-0.6c-4.6-0.9-8.7-9.1-8.8-16.3c0-0.9,0.1-1.9,0.2-2.9C253.4,130.3,257.1,136.7,261.1,137.5z"/>
			<path id="XMLID_190_" class="st18" d="M110,146.5c0,1-0.1,2-0.3,2.9c-0.5-2.4-1.6-4.5-3-8.1c-2.5-6.1-5.7-14.2-5.8-21.6
				c0-1.1,0-2.1,0.2-3.2c0.7,6.7,3.5,13.7,5.6,19.2C108.6,140.6,109.9,142.7,110,146.5z"/>
			<path id="XMLID_191_" class="st17" d="M247,234.8c-0.1-1.6-0.3-2.8,0.5-3.7c2.3-2.9,10.5,0.2,11.8,0.7c3.4,1.3,4.8,2.5,7.4,3.9
				c5.2,2.9,9.6,3.8,14.6,4.9c8.6,1.8,22.1,1.6,34.8-2.8c2.6-0.9,38.4-13.9,46.4-49.4c0.6-2.8,1.4-6.9,1.6-11.9
				c0.3,7.4-0.7,13.7-1.6,17.5c-8,35.6-43.9,48.6-46.4,49.4c-12.7,4.4-26.2,4.6-34.8,2.8c-5-1.1-9.5-2-14.6-4.9
				c-2.7-1.5-4-2.7-7.4-3.9c-1.4-0.5-9.5-3.6-11.8-0.7c-0.2,0.3-0.4,0.7-0.5,1C247,236.7,247,235.7,247,234.8z"/>
			<path id="XMLID_194_" class="st19" d="M196.9,252.2c0.8-2.3,2.1-8,7-13.2c1.9-2,2.6-2.2,3.1-2.1c0.7,0.1,1.4,0.8,2,1.9
				c0,0.4,0,0.7,0,1.1c0.3,4.5-0.1,9.6-1.9,14.9c-0.5,1.3-5.7,15.6-16.7,18.6c-1.1,0.3-5.9,1.6-7.4-0.5c-0.9-1.3-0.5-3.5,0.4-5.2
				c0.1-0.2,0.2-0.4,0.3-0.6c0.7-1.1,1.5-1.7,1.6-1.9c0.6-0.5,1.3-1.6,2.2-3.2C193.3,258.7,195.9,255.2,196.9,252.2z"/>
			<path id="XMLID_192_" class="st17" d="M242.8,172.5c-0.8,1.2-2.1,0.9-3.5,1.9c-1,0.7-1.7,1.8-2.2,3c-0.2-0.4-0.3-0.7-0.4-1.1
				c-0.6-2.6,0.4-6,2.6-7.4c1.2-0.8,2.3-0.7,3.1-1.4c0.1,0.4,0.2,0.9,0.4,1.4C243.1,170.3,243.4,171.5,242.8,172.5z"/>
			<path id="XMLID_193_" class="st17" d="M242.8,167c-0.1,0.2-0.2,0.3-0.4,0.4c-1.3-5-1.9-5.2-2-6.9c0-1.1,0.2-2.2,0.5-3.3
				c0.4,1.1,1,2.7,1.8,6.1C243.1,164.7,243.4,165.9,242.8,167z"/>
			<path id="XMLID_195_" class="st17" d="M306.4,141.3c-2.5,0.7-4.7,2-6.7,3.8c2.3-5,11.4-8.9,19-8.1c12.9,1.3,22.2,16.1,24.4,28.6
				c0.6,3.2,0.7,6.3,0.4,9.1c-0.1-1.2-0.2-2.4-0.4-3.6c-2.2-12.4-11.5-27.2-24.4-28.6c-0.3,0-0.6,0-0.9-0.1
				C314.3,140.9,310.3,140.2,306.4,141.3z"/>
			<path id="XMLID_196_" class="st17" d="M150.4,140.3c-0.6-1.7,2-3.9,4.4-6c9.1-7.9,11.3-9,13.2-10.9c2.9-2.9,3.5-9.7,4.6-23.2
				c0.3-3.4,0.5-6.5,0.6-9.6c0.2,4.7-0.1,9.7-0.6,15.1c-1.1,13.5-1.8,20.3-4.6,23.2c-1.9,2-4.1,3.1-13.2,10.9
				c-0.8,0.7-1.6,1.4-2.3,2.1C151.4,141.5,150.6,141,150.4,140.3z"/>
			<path id="XMLID_197_" class="st17" d="M85,211.2c39.3-30.7,40.2-43.4,61.2-47.3c14.3-2.6,26.1,2.2,34.4,5.6
				c6.3,2.6,36.6,15,44.6,47.4c1.4,5.9,2,12,1.8,18.1c-0.2-4.3-0.8-8.5-1.8-12.6c-8-32.4-38.2-44.8-44.6-47.4
				c-8.2-3.4-20.1-8.2-34.4-5.6c-21,3.9-21.8,16.5-61.2,47.3c-13.9,10.9-17.5,12.4-22.4,17.7l-0.2-65.5c0,0,0,0.1,0,0.1l0.2,59.8
				C67.5,223.6,71.1,222.1,85,211.2z"/>
			<path id="XMLID_198_" class="st17" d="M127.6,246.6c3.1-15.4,15.7-28.3,30.6-31.6c3.1-0.7,18.6-4.1,27.9,5.6
				c5.1,5.3,6.3,12.6,5.8,19.4c-0.4-5-2.1-9.9-5.8-13.8c-9.3-9.7-24.7-6.3-27.9-5.6c-14.9,3.3-27.6,16.2-30.6,31.6
				c-0.3,1.5-0.5,3-0.6,4.5C126.8,253.4,127,250,127.6,246.6z"/>
			<path id="XMLID_199_" class="st17" d="M261.1,137.5c0.7,0.1,2.3,0.3,3,1.4c0.7,1.1,0.5,2.8-0.2,3.9c-0.2,0.3-0.5,0.6-0.7,0.8
				c-0.7-0.4-1.6-0.5-2.1-0.6c-4.6-0.9-8.7-9.1-8.8-16.3c0-0.9,0.1-1.9,0.2-2.9C253.4,130.3,257.1,136.7,261.1,137.5z"/>
			<path id="XMLID_200_" class="st18" d="M110,146.5c0,1-0.1,2-0.3,2.9c-0.5-2.4-1.6-4.5-3-8.1c-2.5-6.1-5.7-14.2-5.8-21.6
				c0-1.1,0-2.1,0.2-3.2c0.7,6.7,3.5,13.7,5.6,19.2C108.6,140.6,109.9,142.7,110,146.5z"/>
			<path id="XMLID_201_" class="st17" d="M247,234.8c-0.1-1.6-0.3-2.8,0.5-3.7c2.3-2.9,10.5,0.2,11.8,0.7c3.4,1.3,4.8,2.5,7.4,3.9
				c5.2,2.9,9.6,3.8,14.6,4.9c8.6,1.8,22.1,1.6,34.8-2.8c2.6-0.9,38.4-13.9,46.4-49.4c0.6-2.8,1.4-6.9,1.6-11.9
				c0.3,7.4-0.7,13.7-1.6,17.5c-8,35.6-43.9,48.6-46.4,49.4c-12.7,4.4-26.2,4.6-34.8,2.8c-5-1.1-9.5-2-14.6-4.9
				c-2.7-1.5-4-2.7-7.4-3.9c-1.4-0.5-9.5-3.6-11.8-0.7c-0.2,0.3-0.4,0.7-0.5,1C247,236.7,247,235.7,247,234.8z"/>
			<path id="XMLID_205_" class="st20" d="M323.3,172.7c-1.6,1.5-6.4,5.8-13,5.6c-7.9-0.3-15.3-7.3-16.7-15.8
				c-1.1-6.5,1.5-13.2,6.1-17.4c-0.3,0.6-0.5,1.3-0.5,1.9c-0.1,1.1,0.2,2.2,0.7,3.3c1.3,2.7,4.1,5.1,6.7,6.4
				c8.1,4.1,15-1.8,19.5,2.3c2,1.8,2.5,4.5,2.5,6.8C326.9,169.4,324.2,171.8,323.3,172.7z"/>
			<path id="XMLID_202_" class="st17" d="M242.8,172.5c-0.8,1.2-2.1,0.9-3.5,1.9c-1,0.7-1.7,1.8-2.2,3c-0.2-0.4-0.3-0.7-0.4-1.1
				c-0.6-2.6,0.4-6,2.6-7.4c1.2-0.8,2.3-0.7,3.1-1.4c0.1,0.4,0.2,0.9,0.4,1.4C243.1,170.3,243.4,171.5,242.8,172.5z"/>
			<path id="XMLID_203_" class="st17" d="M242.8,167c-0.1,0.2-0.2,0.3-0.4,0.4c-1.3-5-1.9-5.2-2-6.9c0-1.1,0.2-2.2,0.5-3.3
				c0.4,1.1,1,2.7,1.8,6.1C243.1,164.7,243.4,165.9,242.8,167z"/>
			<path id="XMLID_204_" class="st17" d="M299.2,147c0.5-5.8,10.9-10.9,19.5-10c12.9,1.3,22.2,16.1,24.4,28.6
				c0.6,3.2,0.7,6.3,0.4,9.1c-0.1-1.2-0.2-2.4-0.4-3.6c-2.2-12.4-11.5-27.2-24.4-28.6c-7.4-0.8-16.3,3-18.8,7.7
				C299.4,149.2,299.1,148.1,299.2,147z"/>
			<path id="XMLID_206_" class="st17" d="M150.4,140.3c-0.6-1.7,2-3.9,4.4-6c9.1-7.9,11.3-9,13.2-10.9c2.9-2.9,3.5-9.7,4.6-23.2
				c0.3-3.4,0.5-6.5,0.6-9.6c0.2,4.7-0.1,9.7-0.6,15.1c-1.1,13.5-1.8,20.3-4.6,23.2c-1.9,2-4.1,3.1-13.2,10.9
				c-0.8,0.7-1.6,1.4-2.3,2.1C151.4,141.5,150.6,141,150.4,140.3z"/>
			<path id="XMLID_207_" class="st17" d="M85,211.2c39.3-30.7,40.2-43.4,61.2-47.3c14.3-2.6,26.1,2.2,34.4,5.6
				c6.3,2.6,36.6,15,44.6,47.4c1.4,5.9,2,12,1.8,18.1c-0.2-4.3-0.8-8.5-1.8-12.6c-8-32.4-38.2-44.8-44.6-47.4
				c-8.2-3.4-20.1-8.2-34.4-5.6c-21,3.9-21.8,16.5-61.2,47.3c-13.9,10.9-17.5,12.4-22.4,17.7l-0.2-65.5c0,0,0,0.1,0,0.1l0.2,59.8
				C67.5,223.6,71.1,222.1,85,211.2z"/>
			<path id="XMLID_208_" class="st17" d="M127.6,246.6c3.1-15.4,15.7-28.3,30.6-31.6c3.1-0.7,18.6-4.1,27.9,5.6
				c5.1,5.3,6.3,12.6,5.8,19.4c-0.4-5-2.1-9.9-5.8-13.8c-9.3-9.7-24.7-6.3-27.9-5.6c-14.9,3.3-27.6,16.2-30.6,31.6
				c-0.3,1.5-0.5,3-0.6,4.5C126.8,253.4,127,250,127.6,246.6z"/>
			<path id="XMLID_209_" class="st17" d="M261.1,137.5c0.7,0.1,2.3,0.3,3,1.4c0.7,1.1,0.5,2.8-0.2,3.9c-0.2,0.3-0.5,0.6-0.7,0.8
				c-0.7-0.4-1.6-0.5-2.1-0.6c-4.6-0.9-8.7-9.1-8.8-16.3c0-0.9,0.1-1.9,0.2-2.9C253.4,130.3,257.1,136.7,261.1,137.5z"/>
			<path id="XMLID_210_" class="st18" d="M110,146.5c0,1-0.1,2-0.3,2.9c-0.5-2.4-1.6-4.5-3-8.1c-2.5-6.1-5.7-14.2-5.8-21.6
				c0-1.1,0-2.1,0.2-3.2c0.7,6.7,3.5,13.7,5.6,19.2C108.6,140.6,109.9,142.7,110,146.5z"/>
			<path id="XMLID_211_" class="st17" d="M247,234.8c-0.1-1.6-0.3-2.8,0.5-3.7c2.3-2.9,10.5,0.2,11.8,0.7c3.4,1.3,4.8,2.5,7.4,3.9
				c5.2,2.9,9.6,3.8,14.6,4.9c8.6,1.8,22.1,1.6,34.8-2.8c2.6-0.9,38.4-13.9,46.4-49.4c0.6-2.8,1.4-6.9,1.6-11.9
				c0.3,7.4-0.7,13.7-1.6,17.5c-8,35.6-43.9,48.6-46.4,49.4c-12.7,4.4-26.2,4.6-34.8,2.8c-5-1.1-9.5-2-14.6-4.9
				c-2.7-1.5-4-2.7-7.4-3.9c-1.4-0.5-9.5-3.6-11.8-0.7c-0.2,0.3-0.4,0.7-0.5,1C247,236.7,247,235.7,247,234.8z"/>
			<path id="XMLID_214_" class="st19" d="M270.5,127.6c-3.4-0.3-9.6-0.9-13.5-5.9c-1.9-2.4-2.9-5.4-3.2-8.4c0.9-2.2,2.2-4.1,4-5.3
				c0.7-0.4,2.7-1.8,4.4-1.2c1.5,0.6,2.1,2.5,2.3,3c2.1,5.6,15.7,12.6,28.8,11.7C288.4,125.5,279,128.5,270.5,127.6z"/>
			
				<radialGradient id="XMLID_14_" cx="328.6849" cy="334.0505" r="6.7615" gradientTransform="matrix(-4.489700e-11 -1 -1 4.489700e-11 598.2103 501.9476)" gradientUnits="userSpaceOnUse">
				<stop  offset="0" style="stop-color:#444344"/>
				<stop  offset="0.2694" style="stop-color:#3D3D3D"/>
				<stop  offset="0.7296" style="stop-color:#343334"/>
				<stop  offset="1" style="stop-color:#303031"/>
			</radialGradient>
			<circle id="XMLID_52_" class="st21" cx="264.2" cy="173.3" r="6.8"/>
			
				<radialGradient id="XMLID_15_" cx="343.1345" cy="348.3156" r="8.5673" gradientTransform="matrix(-4.489700e-11 -1 -1 4.489700e-11 598.2103 501.9476)" gradientUnits="userSpaceOnUse">
				<stop  offset="0" style="stop-color:#444344"/>
				<stop  offset="0.2694" style="stop-color:#3D3D3D"/>
				<stop  offset="0.7296" style="stop-color:#343334"/>
				<stop  offset="1" style="stop-color:#303031"/>
			</radialGradient>
			<ellipse id="XMLID_56_" class="st22" cx="249.9" cy="158.8" rx="8.5" ry="8.6"/>
			
				<radialGradient id="XMLID_16_" cx="327.5945" cy="350.2617" r="6.7694" gradientTransform="matrix(-4.489700e-11 -1 -1 4.489700e-11 598.2103 501.9476)" gradientUnits="userSpaceOnUse">
				<stop  offset="0" style="stop-color:#444344"/>
				<stop  offset="0.2694" style="stop-color:#3D3D3D"/>
				<stop  offset="0.7296" style="stop-color:#343334"/>
				<stop  offset="1" style="stop-color:#303031"/>
			</radialGradient>
			<ellipse id="XMLID_57_" class="st23" cx="247.9" cy="174.4" rx="6.8" ry="6.8"/>
			
				<radialGradient id="XMLID_17_" cx="334.5424" cy="341.7193" r="9.7523" gradientTransform="matrix(-4.489700e-11 -1 -1 4.489700e-11 598.2103 501.9476)" gradientUnits="userSpaceOnUse">
				<stop  offset="0" style="stop-color:#535253"/>
				<stop  offset="0.2799" style="stop-color:#444344"/>
				<stop  offset="0.6022" style="stop-color:#343435"/>
				<stop  offset="0.8531" style="stop-color:#2A2A2B"/>
				<stop  offset="1" style="stop-color:#262626"/>
			</radialGradient>
			<ellipse id="XMLID_55_" class="st24" cx="256.5" cy="167.4" rx="9.6" ry="9.9"/>
			<path id="XMLID_218_" class="st17" d="M318.7,142.6c-7.4-0.8-16.3,3-18.8,7.7c-0.5-1.1-0.8-2.2-0.7-3.3
				c0.5-5.8,10.9-10.9,19.5-10c12.9,1.3,22.2,16.1,24.4,28.6c0.6,3.2,0.7,6.3,0.4,9.1c-0.1-1.2-0.2-2.4-0.4-3.6
				C340.9,158.7,331.6,143.9,318.7,142.6z"/>
			<path id="XMLID_219_" class="st17" d="M150.4,140.3c-0.6-1.7,2-3.9,4.4-6c9.1-7.9,11.3-9,13.2-10.9c2.9-2.9,3.5-9.7,4.6-23.2
				c0.3-3.4,0.5-6.5,0.6-9.6c0.2,4.7-0.1,9.7-0.6,15.1c-1.1,13.5-1.8,20.3-4.6,23.2c-1.9,2-4.1,3.1-13.2,10.9
				c-0.8,0.7-1.6,1.4-2.3,2.1C151.4,141.5,150.6,141,150.4,140.3z"/>
			<path id="XMLID_220_" class="st17" d="M85,211.2c39.3-30.7,40.2-43.4,61.2-47.3c14.3-2.6,26.1,2.2,34.4,5.6
				c6.3,2.6,36.6,15,44.6,47.4c1.4,5.9,2,12,1.8,18.1c-0.2-4.3-0.8-8.5-1.8-12.6c-8-32.4-38.2-44.8-44.6-47.4
				c-8.2-3.4-20.1-8.2-34.4-5.6c-21,3.9-21.8,16.5-61.2,47.3c-13.9,10.9-17.5,12.4-22.4,17.7l-0.2-65.5c0,0,0,0.1,0,0.1l0.2,59.8
				C67.5,223.6,71.1,222.1,85,211.2z"/>
			<path id="XMLID_221_" class="st17" d="M127.6,246.6c3.1-15.4,15.7-28.3,30.6-31.6c3.1-0.7,18.6-4.1,27.9,5.6
				c5.1,5.3,6.3,12.6,5.8,19.4c-0.4-5-2.1-9.9-5.8-13.8c-9.3-9.7-24.7-6.3-27.9-5.6c-14.9,3.3-27.6,16.2-30.6,31.6
				c-0.3,1.5-0.5,3-0.6,4.5C126.8,253.4,127,250,127.6,246.6z"/>
			<path id="XMLID_222_" class="st17" d="M261.1,137.5c0.7,0.1,2.3,0.3,3,1.4c0.7,1.1,0.5,2.8-0.2,3.9c-0.2,0.3-0.5,0.6-0.7,0.8
				c-0.7-0.4-1.6-0.5-2.1-0.6c-4.6-0.9-8.7-9.1-8.8-16.3c0-0.9,0.1-1.9,0.2-2.9C253.4,130.3,257.1,136.7,261.1,137.5z"/>
			<path id="XMLID_223_" class="st18" d="M110,146.5c0,1-0.1,2-0.3,2.9c-0.5-2.4-1.6-4.5-3-8.1c-2.5-6.1-5.7-14.2-5.8-21.6
				c0-1.1,0-2.1,0.2-3.2c0.7,6.7,3.5,13.7,5.6,19.2C108.6,140.6,109.9,142.7,110,146.5z"/>
			<path id="XMLID_224_" class="st17" d="M247,234.8c-0.1-1.6-0.3-2.8,0.5-3.7c2.3-2.9,10.5,0.2,11.8,0.7c3.4,1.3,4.8,2.5,7.4,3.9
				c5.2,2.9,9.6,3.8,14.6,4.9c8.6,1.8,22.1,1.6,34.8-2.8c2.6-0.9,38.4-13.9,46.4-49.4c0.6-2.8,1.4-6.9,1.6-11.9
				c0.3,7.4-0.7,13.7-1.6,17.5c-8,35.6-43.9,48.6-46.4,49.4c-12.7,4.4-26.2,4.6-34.8,2.8c-5-1.1-9.5-2-14.6-4.9
				c-2.7-1.5-4-2.7-7.4-3.9c-1.4-0.5-9.5-3.6-11.8-0.7c-0.2,0.3-0.4,0.7-0.5,1C247,236.7,247,235.7,247,234.8z"/>
			<path id="XMLID_229_" class="st19" d="M204,155.8c2.8,2,5.3,4,20.9,18.6c21.1,19.7,22.6,21.8,29.5,26.9
				c13,9.7,19.5,14.6,28.8,16.5c5.6,1.1,11.5,1.2,17.5,0.3c-9.4,3.9-32,0.4-48.4-9.2c-19-11.2-20.4-25.4-39.7-42.7
				c-14.9-13.4-31.3-20.5-45.1-24.6c1.4-0.3,2.6-0.7,3.3-0.9C180.2,138.4,189.3,145.1,204,155.8z"/>
			<path id="XMLID_225_" class="st17" d="M242.8,172.5c-0.8,1.2-2.1,0.9-3.5,1.9c-1,0.7-1.7,1.8-2.2,3c-0.2-0.4-0.3-0.7-0.4-1.1
				c-0.6-2.6,0.4-6,2.6-7.4c1.2-0.8,2.3-0.7,3.1-1.4c0.1,0.4,0.2,0.9,0.4,1.4C243.1,170.3,243.4,171.5,242.8,172.5z"/>
			<path id="XMLID_226_" class="st17" d="M242.8,167c-0.1,0.2-0.2,0.3-0.4,0.4c-1.3-5-1.9-5.2-2-6.9c0-1.1,0.2-2.2,0.5-3.3
				c0.4,1.1,1,2.7,1.8,6.1C243.1,164.7,243.4,165.9,242.8,167z"/>
			<path id="XMLID_227_" class="st17" d="M299.2,147c0.5-5.8,10.9-10.9,19.5-10c12.9,1.3,22.2,16.1,24.4,28.6
				c0.6,3.2,0.7,6.3,0.4,9.1c-0.1-1.2-0.2-2.4-0.4-3.6c-2.2-12.4-11.5-27.2-24.4-28.6c-7.4-0.8-16.3,3-18.8,7.7
				C299.4,149.2,299.1,148.1,299.2,147z"/>
			<path id="XMLID_228_" class="st17" d="M150.4,140.3c-0.6-1.7,2-3.9,4.4-6c1.7-1.5,3.2-2.7,4.4-3.7c4.2-2.2,8.2-5,11.6-8.4
				c-0.6,3.2-1.5,5.4-2.8,6.7c-1.9,2-4.1,3.1-13.2,10.9c-0.8,0.7-1.6,1.4-2.3,2.1C151.4,141.5,150.6,141,150.4,140.3z"/>
			<path id="XMLID_230_" class="st17" d="M85,211.2c39.3-30.7,40.2-43.4,61.2-47.3c14.3-2.6,26.1,2.2,34.4,5.6
				c6.3,2.6,36.6,15,44.6,47.4c1.4,5.9,2,12,1.8,18.1c-0.2-4.3-0.8-8.5-1.8-12.6c-8-32.4-38.2-44.8-44.6-47.4
				c-8.2-3.4-20.1-8.2-34.4-5.6c-21,3.9-21.8,16.5-61.2,47.3c-13.9,10.9-17.5,12.4-22.4,17.7l-0.2-65.5c0,0,0,0.1,0,0.1l0.2,59.8
				C67.5,223.6,71.1,222.1,85,211.2z"/>
			<path id="XMLID_231_" class="st17" d="M127.6,246.6c3.1-15.4,15.7-28.3,30.6-31.6c3.1-0.7,18.6-4.1,27.9,5.6
				c5.1,5.3,6.3,12.6,5.8,19.4c-0.4-5-2.1-9.9-5.8-13.8c-9.3-9.7-24.7-6.3-27.9-5.6c-14.9,3.3-27.6,16.2-30.6,31.6
				c-0.3,1.5-0.5,3-0.6,4.5C126.8,253.4,127,250,127.6,246.6z"/>
			<path id="XMLID_232_" class="st17" d="M261.1,137.5c0.7,0.1,2.3,0.3,3,1.4c0.7,1.1,0.5,2.8-0.2,3.9c-0.2,0.3-0.5,0.6-0.7,0.8
				c-0.7-0.4-1.6-0.5-2.1-0.6c-4.6-0.9-8.7-9.1-8.8-16.3c0-0.9,0.1-1.9,0.2-2.9C253.4,130.3,257.1,136.7,261.1,137.5z"/>
			<path id="XMLID_233_" class="st18" d="M110,146.5c0,1-0.1,2-0.3,2.9c-0.5-2.4-1.6-4.5-3-8.1c-2.5-6.1-5.7-14.2-5.8-21.6
				c0-1.1,0-2.1,0.2-3.2c0.7,6.7,3.5,13.7,5.6,19.2C108.6,140.6,109.9,142.7,110,146.5z"/>
			<path id="XMLID_234_" class="st17" d="M247,234.8c-0.1-1.6-0.3-2.8,0.5-3.7c2.3-2.9,10.5,0.2,11.8,0.7c3.4,1.3,4.8,2.5,7.4,3.9
				c5.2,2.9,9.6,3.8,14.6,4.9c8.6,1.8,22.1,1.6,34.8-2.8c2.6-0.9,38.4-13.9,46.4-49.4c0.6-2.8,1.4-6.9,1.6-11.9
				c0.3,7.4-0.7,13.7-1.6,17.5c-8,35.6-43.9,48.6-46.4,49.4c-12.7,4.4-26.2,4.6-34.8,2.8c-5-1.1-9.5-2-14.6-4.9
				c-2.7-1.5-4-2.7-7.4-3.9c-1.4-0.5-9.5-3.6-11.8-0.7c-0.2,0.3-0.4,0.7-0.5,1C247,236.7,247,235.7,247,234.8z"/>
			<path id="XMLID_235_" class="st17" d="M242.8,172.5c-0.8,1.2-2.1,0.9-3.5,1.9c-1,0.7-1.7,1.8-2.2,3c-0.2-0.4-0.3-0.7-0.4-1.1
				c-0.6-2.6,0.4-6,2.6-7.4c1.2-0.8,2.3-0.7,3.1-1.4c0.1,0.4,0.2,0.9,0.4,1.4C243.1,170.3,243.4,171.5,242.8,172.5z"/>
			<path id="XMLID_236_" class="st17" d="M242.8,167c-0.1,0.2-0.2,0.3-0.4,0.4c-1.3-5-1.9-5.2-2-6.9c0-1.1,0.2-2.2,0.5-3.3
				c0.4,1.1,1,2.7,1.8,6.1C243.1,164.7,243.4,165.9,242.8,167z"/>
			<path id="XMLID_237_" class="st17" d="M299.2,147c0.5-5.8,10.9-10.9,19.5-10c12.9,1.3,22.2,16.1,24.4,28.6
				c0.6,3.2,0.7,6.3,0.4,9.1c-0.1-1.2-0.2-2.4-0.4-3.6c-2.2-12.4-11.5-27.2-24.4-28.6c-7.4-0.8-16.3,3-18.8,7.7
				C299.4,149.2,299.1,148.1,299.2,147z"/>
			<path id="XMLID_239_" class="st17" d="M150.4,140.3c-0.6-1.7,2-3.9,4.4-6c9.1-7.9,11.3-9,13.2-10.9c2.9-2.9,3.5-9.7,4.6-23.2
				c0.3-3.4,0.5-6.5,0.6-9.6c0.2,4.7-0.1,9.7-0.6,15.1c-1.1,13.5-1.8,20.3-4.6,23.2c-1.9,2-4.1,3.1-13.2,10.9
				c-0.8,0.7-1.6,1.4-2.3,2.1C151.4,141.5,150.6,141,150.4,140.3z"/>
			<path id="XMLID_240_" class="st17" d="M85,211.2c39.3-30.7,40.2-43.4,61.2-47.3c14.3-2.6,26.1,2.2,34.4,5.6
				c6.3,2.6,36.6,15,44.6,47.4c1.4,5.9,2,12,1.8,18.1c-0.2-4.3-0.8-8.5-1.8-12.6c-8-32.4-38.2-44.8-44.6-47.4
				c-8.2-3.4-20.1-8.2-34.4-5.6c-21,3.9-21.8,16.5-61.2,47.3c-13.9,10.9-17.5,12.4-22.4,17.7l-0.2-65.5c0,0,0,0.1,0,0.1l0.2,59.8
				C67.5,223.6,71.1,222.1,85,211.2z"/>
			<path id="XMLID_241_" class="st17" d="M127.6,246.6c3.1-15.4,15.7-28.3,30.6-31.6c3.1-0.7,18.6-4.1,27.9,5.6
				c5.1,5.3,6.3,12.6,5.8,19.4c-0.4-5-2.1-9.9-5.8-13.8c-9.3-9.7-24.7-6.3-27.9-5.6c-14.9,3.3-27.6,16.2-30.6,31.6
				c-0.3,1.5-0.5,3-0.6,4.5C126.8,253.4,127,250,127.6,246.6z"/>
			<path id="XMLID_242_" class="st17" d="M261.1,137.5c0.7,0.1,2.3,0.3,3,1.4c0.7,1.1,0.5,2.8-0.2,3.9c-0.2,0.3-0.5,0.6-0.7,0.8
				c-0.7-0.4-1.6-0.5-2.1-0.6c-4.6-0.9-8.7-9.1-8.8-16.3c0-0.9,0.1-1.9,0.2-2.9C253.4,130.3,257.1,136.7,261.1,137.5z"/>
			<path id="XMLID_243_" class="st17" d="M247,234.8c-0.1-1.6-0.3-2.8,0.5-3.7c2.3-2.9,10.5,0.2,11.8,0.7c3.4,1.3,4.8,2.5,7.4,3.9
				c5.2,2.9,9.6,3.8,14.6,4.9c8.6,1.8,22.1,1.6,34.8-2.8c2.6-0.9,38.4-13.9,46.4-49.4c0.6-2.8,1.4-6.9,1.6-11.9
				c0.3,7.4-0.7,13.7-1.6,17.5c-8,35.6-43.9,48.6-46.4,49.4c-12.7,4.4-26.2,4.6-34.8,2.8c-5-1.1-9.5-2-14.6-4.9
				c-2.7-1.5-4-2.7-7.4-3.9c-1.4-0.5-9.5-3.6-11.8-0.7c-0.2,0.3-0.4,0.7-0.5,1C247,236.7,247,235.7,247,234.8z"/>
		</g>
		
			<linearGradient id="XMLID_18_" gradientUnits="userSpaceOnUse" x1="124.743" y1="262.123" x2="124.743" y2="147.9025" gradientTransform="matrix(-1 0 0 1 180.1602 0)">
			<stop  offset="0" style="stop-color:#1C1B1C"/>
			<stop  offset="0.1826" style="stop-color:#1D1C1D"/>
			<stop  offset="0.2987" style="stop-color:#212021"/>
			<stop  offset="0.3962" style="stop-color:#272728"/>
			<stop  offset="0.4834" style="stop-color:#2F2F30"/>
			<stop  offset="0.5639" style="stop-color:#393939"/>
			<stop  offset="0.6392" style="stop-color:#454445"/>
			<stop  offset="0.7093" style="stop-color:#535252"/>
			<stop  offset="0.7527" style="stop-color:#5C5A5B"/>
			<stop  offset="0.8219" style="stop-color:#4E4C4D"/>
			<stop  offset="0.9016" style="stop-color:#3E3D3E"/>
			<stop  offset="0.9637" style="stop-color:#343334"/>
			<stop  offset="1" style="stop-color:#303031"/>
		</linearGradient>
		<polygon id="XMLID_44_" class="st25" points="45.2,262.1 65.6,262.1 65.6,147.9 45.2,147.9 		"/>
	</g>
</g>
<g id="Layer_3">
</g>
</svg>
