<?xml version="1.0" encoding="utf-8"?>
<!-- Generator: Adobe Illustrator 19.2.0, SVG Export Plug-In . SVG Version: 6.00 Build 0)  -->
<svg version="1.1" xmlns="http://www.w3.org/2000/svg" xmlns:xlink="http://www.w3.org/1999/xlink" x="0px" y="0px"
	 viewBox="0 0 400 400" style="enable-background:new 0 0 400 400;" xml:space="preserve">
<style type="text/css">
	.st0{fill:#212121;}
	.st1{fill:#686868;}
</style>
<g id="Layer_1">
	<path id="XMLID_17_" class="st0" d="M172.5,333.4c-2.2,1.2-7.1,0.8-9.5-0.6C137.5,318,35.2,237.7,34,236.7
		c-0.8-0.7-1.6-1.4-2.4-2.2c-1.5-1.7-1.8-5-0.5-6.8c1-1.4,4.9-2.7,5.1-2.7c1.4-0.4,1.8-2,1-3c-0.7-0.9-2.4-1.3-5.3,0.1
		c-3,1.5-8.7,4.5-13.7,7.2c-0.6,0.3-1.2,0.6-1.8,1c-0.7,0.4-1.2,0.7-1.6,1.3c-0.5,0.6-0.8,1.3-1,2.1c-0.1,0.5-0.2,1.1-0.2,1.6
		c0,0.6,0.1,1.1,0.2,1.6c0.2,0.6,0.4,1.2,0.7,1.7c0.1,0.2,0.3,0.5,0.5,0.7c0.2,0.2,0.4,0.4,0.6,0.6c0.2,0.1,0.3,0.2,0.5,0.3
		c0.3,0.2,0.5,0.4,0.8,0.5c0,0,125,89.4,140.9,100.8c0.2,0.2,1.7,1.2,1.9,1.3c1.9,1,4.4,1.6,7.2,1.6c2.7,0,5.1-0.6,7-1.5L296.5,254
		v-5.5C247.2,283.8,189.3,324.6,172.5,333.4z"/>
	<path class="st1" d="M176.1,259.9c-3.1,2-7.1,3-11.1,3c-4,0-8-1-11.1-3L50.4,192.8l-2.7,1.2c-2.8,1.3-4.6,3.1-4.7,4.9
		c-0.1,1.4,0.9,2.5,1.8,3.1L155,276.3c5.4,3.6,14.6,3.6,20,0l120.8-80.7v-12.6L176.1,259.9z"/>
	<path class="st1" d="M176.1,278c-3.1,2.1-7.1,3.1-11.1,3.1c-4,0-8-1-11.1-3.1l-104-70.2l-2.2,1c-2.8,1.4-4.6,3.2-4.7,5
		c-0.1,1.5,0.9,2.6,1.9,3.2L155,293.6c5.4,3.7,14.5,3.7,20,0l120.8-83v-12.5L176.1,278z"/>
	<path class="st1" d="M176.1,295.3c-3.1,2.1-7.1,3.2-11.2,3.2c-4,0-8.1-1.1-11.1-3.2L49.5,222.7l-1.7,0.9c-2.8,1.4-4.6,3.4-4.8,5.3
		c-0.1,1.3,0.5,2.4,1.9,3.4L155,311.8h0c5.4,3.9,14.5,3.9,20,0l120.8-86.2V213L176.1,295.3z"/>
</g>
<g id="Layer_2">
	<path class="st1" d="M107.2,156.4c1.4,1.3,3.9,1.4,7.1,0.2c1.8-0.6,3.4-1.5,5-2.2c4.3-2.7,7-5.4,7.2-7.4c0.1-0.9-0.4-1.8-1.4-2.4
		l-20,9C105.5,154.5,106.2,155.5,107.2,156.4z"/>
	<path class="st1" d="M158.2,164.3c5.5,1.2,12.5,2.3,20.8,1.4c6-0.7,9.9-3.1,9.4-5.6c-0.5-2.6-4.4-4.1-10.7-4
		c-7.1,0.1-13.8,1-19.8,2.8C151.7,160.7,151.5,162.3,158.2,164.3z"/>
	<path class="st1" d="M71.5,198.4c-2.7-3.3-8.7-6-17-5.3l17.8,11.5C73.2,202.5,73,200.3,71.5,198.4z"/>
	<path class="st1" d="M168.9,192c-6.4-1.4-12.7-2.6-19-3.6c-8.5-1.4-16-0.4-22.6,2.8c-9.4,4.4-10.8,11.2-2.3,15.9
		c6.9,3.8,16.1,4.8,26.4,4c12.5-1,23-4.1,33.2-7.8c12-4.3,21.8-9.5,29.8-15.2c-0.9,0.3-1.9,0.6-2.7,0.9
		C198.8,194.7,184.2,195.3,168.9,192z M165.7,201.6c-7.4,3-16.9,5.2-28.1,4.3c-6.1-0.5-10-3.4-9.5-6.4c0.4-2.7,5.1-5.6,10.6-6
		c9.5-0.7,18.6,0.4,26.9,3C169.8,197.7,169.9,199,165.7,201.6z"/>
	<path class="st1" d="M277.6,178.5C277.6,178.6,277.6,178.6,277.6,178.5c0,0.2,0,0.4,0.1,0.6c-0.1,0-0.3,0-0.4,0
		c0.2,0.6,0,1.3-0.9,1.9c-2.1,1.5-6.4,1.8-10.1,0.9c-3.6-0.9-4.9-2.7-2.9-4.1c2-1.4,6.2-1.8,9.9-0.9c2,0.5,3.4,1.2,3.8,2
		C277.3,178.8,277.4,178.7,277.6,178.5c-1.2-3.1-1.7-6.3-3.8-9.3c-3-4.3-10.9-7.2-19.7-9.6c-8-2.2-16.2-4-22.9-6.3
		c-5.5-1.9-8.1-4.5-8.2-7.2l-21.9-8.1c-1.7,0.5-3.5,0.4-5.5-0.2c-4.6-1.4-7.7-3.2-9-5.2l-17.8-6.6c-1.7,0.6-3.6,1.2-5.6,1.7
		l-30.8,13.8c2.1,1.1,3.3,2.7,3.2,4.5c-0.2,3.2-3,6.3-7,9.4c-7.9,6-19.8,10.5-31.7,15c-4.5,1.7-9.5,3-14.3,4.5c0,0-0.1,0-0.1,0.1
		l-0.1,0l0,0c0,0,0,0,0.1,0c0.1,0,0.1,0,0.2,0c3.4-1.8,7.2-3.5,10-5.5c4.9-3.4,5.8-6.9,4.9-10.3c-0.2-0.6-0.3-1.1-0.5-1.7l-49,21.9
		c-2.8,1.3-4.6,3-4.7,4.7c-0.1,1.3,0.9,2.3,1.8,2.9l3.8,2.5c10.1-1.7,19.6-0.8,26.2,2.7c8.2,4.4,8.8,11,3.3,16.4l52.3,33.9
		c0.1,0,0.1-0.1,0.1-0.1l-0.1,0.1l20.1,13.1c9.9-1.9,20.6-2.6,32-2.1l48.7-31.2c-4.6,0.3-9.3,0.2-14.1-0.1
		c-9.2-0.7-11.5-2.7-8.1-6.5c1.1-1.2,2.8-2.2,4.1-3.3c-0.2-0.2,9.7-4.5,15.6-6c7.8-1.9,17.2-0.4,22.4,3.2l26.9-17.3
		c-3.2-1.1-4.1-3-2-4.3c1.9-1.3,6.5-1.6,10.1-0.8l9.5-6.1v-7.6l-12.1-4.5C282.4,171.9,280.4,175.2,277.6,178.5z M223.7,168.6
		c1-0.5,4.1-0.9,5-0.6c1.5,0.5,2,1.5,3,2.3c-0.4,0.2-0.8,0.5-1.2,0.7c-2.1-0.1-4.6-0.1-6.2-0.5C223.3,170.3,223,169,223.7,168.6z
		 M152.8,144.2c0.8,0.1,0.8,1,1.5,2c-2.7,0.1-4.6,0.3-5.3,0.1c-0.8-0.3-0.5-1.1-0.6-1.7C149.8,144.4,151.7,144,152.8,144.2z
		 M143,138.2c1.6-1,4.4-1.4,6.6-0.9c2.2,0.5,2.6,1.6,0.9,2.6c-1.7,1-4.6,1.4-6.7,0.8C141.6,140.1,141.4,139.2,143,138.2z M164,153.5
		c7.5-1.3,15.2-1.7,22.6-0.2c11.2,2.2,14.3,7.5,7.4,12.4c-7.8,5.6-20.6,6.1-32.5,4.2c-3.9-0.6-7.3-1.6-11-2.2
		c-12.3-2.1-23.8-1.6-34.9,2.8C128.8,163.1,144.1,157,164,153.5z M91.7,188.1c1-0.4,2.8-0.3,4.3-0.4c-0.1,0.8,0.4,1.7-0.3,2.4
		c-0.5,0.4-2.7,0.4-5.4,0.8C90.9,189.4,90.8,188.4,91.7,188.1z M90.8,195.7c2.2-1.2,4.7-1.4,7-0.6c2.2,0.8,2.2,2.6,0.2,3.8
		c-2,1.2-5.4,1.5-7.4,0.6C88.7,198.6,88.7,196.8,90.8,195.7z M92.8,209.5c-2-1-2-2.9,0-4.1c2-1.1,5.8-1.3,7.7-0.4c2,1,2,3,0,4.2
		C98.4,210.4,94.9,210.5,92.8,209.5z M110.8,218.1c-1.9,1.3-6,1.5-8.2,0.5c-2.2-1-2.3-3.1-0.3-4.4c2.1-1.3,5.5-1.6,7.9-0.5
		C112.6,214.8,112.8,216.7,110.8,218.1z M128.2,225.1c-2.2,1.6-5.8,1.7-8.5,0.5c-2.6-1.2-2.9-3.2-0.6-4.6c2.3-1.4,5.8-1.6,8.4-0.3
		C130.1,222,130.4,223.6,128.2,225.1z M147.8,226.2c-2-0.3-4.5-0.3-5.9-0.9c-0.8-0.4-0.6-2,0.2-2.7c0.7-0.5,3.8-0.7,4.5-0.3
		c1.3,0.7,1.7,2,2.5,3C148.7,225.6,148.3,225.9,147.8,226.2z M218.6,192.1c-11.9,6.8-25.8,12.9-42.1,17.6
		c-11.9,3.5-24.3,6.1-38.1,5.4c-16.1-0.7-27.7-6.5-28.8-13.5c-1.1-7.4,8-14.6,21.5-17.4c9.5-2,19.1-2.1,29-0.7
		c5.4,0.7,10.8,1.5,16.3,2.4c23.5,3.8,43.5,0.6,60.1-7.5c0.5,0.1,1,0.2,1.4,0.3C231.6,183.2,225.9,187.9,218.6,192.1z M256.1,173.2
		c-1.8,1.3-6.4,1.7-9.7,0.8c-3.2-0.8-4.4-2.6-2.6-3.9c1.8-1.2,6.3-1.6,9.6-0.9C256.6,170,258,171.9,256.1,173.2z"/>
	<path id="XMLID_1_" class="st0" d="M309.7,162.6c-0.9-0.7,21.7-15.6,67.1-43.7L256.3,81.2c-0.6-0.2-1.1-0.3-1.6-0.5
		c-3.9-1.2-7.5-2.4-11.6-2.4c-3.5,0-7,0.5-10.1,1.6L152,117.6l145.8,54.1v80.1l81.2-58.7v-67.9C334,150.7,310.6,163.3,309.7,162.6z"
		/>
</g>
</svg>
