<?xml version="1.0" encoding="utf-8"?>
<!-- Generator: Adobe Illustrator 19.2.0, SVG Export Plug-In . SVG Version: 6.00 Build 0)  -->
<svg version="1.1" xmlns="http://www.w3.org/2000/svg" xmlns:xlink="http://www.w3.org/1999/xlink" x="0px" y="0px"
	 viewBox="0 0 400 400" style="enable-background:new 0 0 400 400;" xml:space="preserve">
<style type="text/css">
	.st0{fill:#474747;}
	.st1{fill:#666666;}
	.st2{fill:#161616;}
	.st3{fill:#848484;}
	.st4{fill:url(#XMLID_3_);}
	.st5{clip-path:url(#XMLID_4_);fill:url(#XMLID_6_);}
</style>
<g id="Layer_1">
</g>
<g id="Layer_2">
	<g id="XMLID_42_">
		<polygon id="XMLID_8_" class="st0" points="337.3,129.2 364.2,104.8 364.2,276.6 337.3,301 		"/>
		<g id="XMLID_41_">
			
				<rect id="XMLID_36_" x="0.5" y="149.6" transform="matrix(-1 8.979693e-11 -8.979693e-11 -1 183.3922 395.3108)" class="st1" width="182.4" height="96.1"/>
			
				<rect id="XMLID_5_" x="182.9" y="129.2" transform="matrix(-1 8.978938e-11 -8.978938e-11 -1 520.1417 430.2599)" class="st2" width="154.4" height="171.8"/>
			<polygon id="XMLID_2_" class="st3" points="208.3,104.8 364.2,104.8 337.3,129.2 182.9,129.2 			"/>
			
				<rect id="XMLID_35_" x="0.5" y="167.1" transform="matrix(-1 8.974720e-11 -8.974720e-11 -1 183.3922 430.2599)" class="st2" width="182.4" height="96.1"/>
			
				<linearGradient id="XMLID_3_" gradientUnits="userSpaceOnUse" x1="471.7751" y1="213.0501" x2="524.1989" y2="213.0501" gradientTransform="matrix(-1 0 0 -1 654.6667 428.18)">
				<stop  offset="0" style="stop-color:#010000"/>
				<stop  offset="1" style="stop-color:#171617;stop-opacity:0"/>
			</linearGradient>
			<polygon id="XMLID_37_" class="st4" points="130.5,167.1 182.9,167.1 182.9,263.2 130.5,263.2 			"/>
			<g id="XMLID_40_">
				<defs>
					
						<rect id="XMLID_39_" x="0.5" y="149.6" transform="matrix(-1 8.979693e-11 -8.979693e-11 -1 183.3922 316.6752)" width="182.4" height="17.5"/>
				</defs>
				<clipPath id="XMLID_4_">
					<use xlink:href="#XMLID_39_"  style="overflow:visible;"/>
				</clipPath>
				
					<linearGradient id="XMLID_6_" gradientUnits="userSpaceOnUse" x1="464.263" y1="194.4259" x2="516.6867" y2="194.4259" gradientTransform="matrix(-0.9661 -0.2583 0.2583 -0.9661 583.9301 496.9262)">
					<stop  offset="0" style="stop-color:#010000"/>
					<stop  offset="1" style="stop-color:#171617;stop-opacity:0"/>
				</linearGradient>
				<polygon id="XMLID_38_" class="st5" points="147.4,129.2 198.1,142.8 173.2,235.6 122.6,222.1 				"/>
			</g>
		</g>
	</g>
</g>
<g id="Layer_3">
</g>
</svg>
