<?xml version="1.0" encoding="utf-8"?>
<!-- Generator: Adobe Illustrator 20.1.0, SVG Export Plug-In . SVG Version: 6.00 Build 0)  -->
<svg version="1.1" id="Layer_1" xmlns="http://www.w3.org/2000/svg" xmlns:xlink="http://www.w3.org/1999/xlink" x="0px" y="0px"
	 viewBox="0 0 300 300" style="enable-background:new 0 0 300 300;" xml:space="preserve">
<path d="M132.7,30.8h-3v34.4c-19.3,4-33.5,20.8-33.5,40.2v163.9h86.7V79.4C182.8,52.6,160.3,30.8,132.7,30.8z M154.5,180.8v-12.5
	H166v12.5H154.5z M166,228.3v12.5h-11.5v-12.5H166z M154.5,160.8v-12.5H166v12.5H154.5z M134.5,208.3H146v12.5h-11.5V208.3z
	 M134.5,160.8v-12.5H146v12.5H134.5z M134.5,120.8v-12.5H146v12.5H134.5z M134.7,60.8V48.3H146v12.5H134.7z M114.5,200.8v-12.5H126
	v12.5H114.5z M126,248.3v12.5h-11.5v-12.5H126z M114.5,140.8v-12.5H126v12.5H114.5z M114.5,100.8V88.3H126v12.5H114.5z M187.3,146.1
	v123h66.5v-123H187.3z M206.3,246.9h-11.5v-12.5h11.5V246.9z M206.3,186.9h-11.5v-12.5h11.5V186.9z M206.3,166.9h-11.5v-12.5h11.5
	V166.9z M226.3,226.9h-11.5v-12.5h11.5V226.9z M226.3,166.9h-11.5v-12.5h11.5V166.9z M246.3,206.9h-11.5v-12.5h11.5V206.9z
	 M46.3,167v101.5h45.5V167H46.3z M64.8,249H53.3v-12.5h11.5V249z M64.8,229H53.3v-12.5h11.5V229z M64.8,189H53.3v-12.5h11.5V189z
	 M84.8,209H73.3v-12.5h11.5V209z M84.8,189H73.3v-12.5h11.5V189z"/>
</svg>
