<?xml version="1.0" encoding="utf-8"?>
<!-- Generator: Adobe Illustrator 20.1.0, SVG Export Plug-In . SVG Version: 6.00 Build 0)  -->
<svg version="1.1" id="Layer_1" xmlns="http://www.w3.org/2000/svg" xmlns:xlink="http://www.w3.org/1999/xlink" x="0px" y="0px"
	 viewBox="0 0 300 300" style="enable-background:new 0 0 300 300;" xml:space="preserve">
<path d="M176.8,128.3L176.8,128.3c8.6,4.8,14.1,2.4,19.3-7l53.3-85.5c5.2-9.3,2.5-20.9-6.1-25.8v0c-7.3-4.1-19.3-2.3-23.8,5.6
	l-46.8,92.5C167.4,117.5,168.2,123.4,176.8,128.3z M214.2,38.4L222,23c1-2,3.4-2.7,5.4-1.7l1.5,0.8c2,1,2.7,3.4,1.7,5.4l-7.9,15.3
	c-1,2-3.4,2.7-5.4,1.7l-1.5-0.8C213.9,42.7,213.1,40.3,214.2,38.4z"/>
<path d="M214.4,255.4h-29.5v-18.1c0-2.9-2.4-5.2-5.2-5.2h-59.3c-2.9,0-5.2,2.4-5.2,5.2v18.1H85.6c-2.9,0-5.2,2.4-5.2,5.2v26.2
	c0,2.9,2.4,5.2,5.2,5.2h128.8c2.9,0,5.2-2.4,5.2-5.2v-26.2C219.6,257.8,217.3,255.4,214.4,255.4z"/>
<path d="M255.1,56.8h-12.8l-6.8,10.9h19.6c7.2,0,13.1,5.9,13.1,13.1v108.1l-236.5-0.2V80.8c0-7.2,5.9-13.1,13.1-13.1h142.2l5.5-10.9
	H44.9c-13.3,0-24,10.8-24,24v117.8c0,13.3,10.8,24,24,24h210.3c13.3,0,24-10.8,24-24V80.8C279.2,67.5,268.4,56.8,255.1,56.8z"/>
<path d="M149.8,160.2c5.1-0.7,19.2-3.2,25.2-8.3c1.4-1.1,2.6-2.4,3.5-4.1c3.5-6.3,1.3-14.3-5.1-17.9c-6.3-3.5-14.3-1.3-17.9,5.1
	c-1.4,2.5-1.9,5.2-1.6,7.9c-0.1,0,2.4,11.9,1,14.2C153.8,159,151.5,159.8,149.8,160.2z"/>
</svg>
