<?xml version="1.0" encoding="utf-8"?>
<!-- Generator: Adobe Illustrator 19.2.1, SVG Export Plug-In . SVG Version: 6.00 Build 0)  -->
<svg version="1.1" id="Layer_1" xmlns="http://www.w3.org/2000/svg" xmlns:xlink="http://www.w3.org/1999/xlink" x="0px" y="0px"
	 width="1900px" height="850px" viewBox="0 0 1900 850" style="enable-background:new 0 0 1900 850;" xml:space="preserve">
<style type="text/css">
	.st0{fill:none;stroke:#5E5F5F;stroke-miterlimit:10;}
	.st1{fill:#F89921;}
	.st2{fill:#4FAF4E;}
	.st3{fill:#5E5F5F;}
	.st4{fill:#04988A;}
	.st5{fill:#3492D0;}
</style>
<line class="st0" x1="0" y1="0" x2="151.1" y2="199.1"/>
<line class="st0" x1="341.6" y1="34.9" x2="151.1" y2="199.1"/>
<line class="st0" x1="229" y1="0" x2="597.4" y2="117"/>
<line class="st0" x1="542.5" y1="99.6" x2="379.5" y2="363.3"/>
<line class="st0" x1="151.1" y1="199.1" x2="542.5" y2="99.6"/>
<line class="st0" x1="597.4" y1="117" x2="638.5" y2="0"/>
<line class="st0" x1="583.7" y1="292.8" x2="597.4" y2="117"/>
<polyline class="st0" points="936.4,204.9 766.9,224.7 848.5,144.5 597.4,117 "/>
<line class="st0" x1="1738.5" y1="0" x2="1900" y2="117"/>
<line class="st0" x1="1606.9" y1="245.4" x2="1738.5" y2="0"/>
<line class="st0" x1="1900" y1="117" x2="1646.3" y2="172"/>
<line class="st0" x1="1646.3" y1="172" x2="1562.7" y2="0"/>
<polyline class="st0" points="379.5,363.3 597.4,117 766.9,224.7 801.6,302.3 "/>
<line class="st0" x1="583.7" y1="292.8" x2="379.5" y2="363.3"/>
<line class="st0" x1="151.1" y1="199.1" x2="379.5" y2="363.3"/>
<line class="st0" x1="0" y1="231.4" x2="151.1" y2="199.1"/>
<polyline class="st0" points="282.4,86 365.8,144.5 379.5,363.3 "/>
<line class="st0" x1="936.4" y1="204.9" x2="638.5" y2="0"/>
<line class="st0" x1="848.5" y1="144.5" x2="1057.4" y2="0"/>
<line class="st0" x1="978.8" y1="54.4" x2="1074.3" y2="130.7"/>
<line class="st0" x1="1057.4" y1="0" x2="1074.3" y2="130.7"/>
<polyline class="st0" points="978.8,54.4 936.4,204.9 1026.5,155.9 1082.7,263.3 1203.7,181.2 "/>
<line class="st0" x1="1074.3" y1="130.7" x2="1082.7" y2="263.3"/>
<line class="st0" x1="1074.3" y1="130.7" x2="1231.1" y2="77"/>
<line class="st0" x1="1203.7" y1="181.2" x2="1074.3" y2="130.7"/>
<line class="st0" x1="1249" y1="0" x2="1203.7" y2="181.2"/>
<line class="st0" x1="1646.3" y1="172" x2="1374.3" y2="362.3"/>
<line class="st0" x1="1231.1" y1="77" x2="1375.3" y2="144.5"/>
<line class="st0" x1="1249" y1="0" x2="1375.3" y2="144.5"/>
<line class="st0" x1="1203.7" y1="181.2" x2="1375.3" y2="144.5"/>
<line class="st0" x1="1374.3" y1="362.3" x2="1591.1" y2="58.5"/>
<line class="st0" x1="1562.7" y1="0" x2="1482.7" y2="210.4"/>
<polyline class="st0" points="1152.7,0 1074.3,130.7 1026.5,155.9 "/>
<line class="st0" x1="1231.1" y1="77" x2="1152.7" y2="0"/>
<polyline class="st0" points="1428.7,286 1203.7,181.2 1061.6,302.3 "/>
<line class="st0" x1="1375.3" y1="144.5" x2="1428.7" y2="286"/>
<line class="st0" x1="1484.8" y1="204.9" x2="1375.3" y2="144.5"/>
<line class="st0" x1="1562.7" y1="0" x2="1375.3" y2="144.5"/>
<line class="st0" x1="151.1" y1="199.1" x2="92.2" y2="470.7"/>
<line class="st0" x1="848.5" y1="144.5" x2="847.9" y2="0"/>
<line class="st0" x1="504.3" y1="222.3" x2="583.7" y2="292.8"/>
<polyline class="st0" points="1501.3,273.4 1604.5,323.3 1606.9,245.4 1900,117 "/>
<circle class="st1" cx="92" cy="471.5" r="7.4"/>
<circle class="st2" cx="379.5" cy="363.3" r="7.4"/>
<circle class="st3" cx="583.7" cy="292.8" r="7.4"/>
<circle class="st4" cx="504.4" cy="222.3" r="7.4"/>
<circle class="st5" cx="363.1" cy="145.2" r="7.4"/>
<circle class="st3" cx="540.9" cy="99.9" r="7.4"/>
<ellipse transform="matrix(0.7575 -0.6529 0.6529 0.7575 68.5117 418.4241)" class="st2" cx="597.4" cy="117" rx="7.4" ry="7.4"/>
<ellipse transform="matrix(0.7575 -0.6529 0.6529 0.7575 -3.6495 596.4108)" class="st3" cx="800.9" cy="303.1" rx="7.4" ry="7.4"/>
<ellipse transform="matrix(0.7575 -0.6529 0.6529 0.7575 39.3688 555.269)" class="st5" cx="767" cy="224.6" rx="7.4" ry="7.4"/>
<ellipse transform="matrix(0.7575 -0.6529 0.6529 0.7575 92.4463 660.9571)" class="st2" cx="935.8" cy="206.1" rx="7.4" ry="7.4"/>
<ellipse transform="matrix(0.7575 -0.6529 0.6529 0.7575 111.8337 589.2445)" class="st1" cx="849" cy="144.1" rx="7.4" ry="7.4"/>
<ellipse transform="matrix(0.7575 -0.6529 0.6529 0.7575 201.9492 652.3024)" class="st3" cx="978.9" cy="54.3" rx="7.4" ry="7.4"/>
<ellipse transform="matrix(0.7575 -0.6529 0.6529 0.7575 175.2941 733.0724)" class="st3" cx="1074.3" cy="130.6" rx="7.4" ry="7.4"/>
<ellipse transform="matrix(0.7575 -0.6529 0.6529 0.7575 147.1979 708.0045)" class="st4" cx="1026.5" cy="155.9" rx="7.4" ry="7.4"/>
<ellipse transform="matrix(0.7575 -0.6529 0.6529 0.7575 90.7213 770.769)" class="st3" cx="1082.8" cy="263.3" rx="7.4" ry="7.4"/>
<ellipse transform="matrix(0.7575 -0.6529 0.6529 0.7575 60.1781 766.4942)" class="st4" cx="1061.8" cy="302.3" rx="7.4" ry="7.4"/>
<ellipse transform="matrix(0.7575 -0.6529 0.6529 0.7575 172.7919 830.0212)" class="st5" cx="1203.6" cy="182.4" rx="7.4" ry="7.4"/>
<ellipse transform="matrix(0.7575 -0.6529 0.6529 0.7575 248.3459 822.472)" class="st2" cx="1231.2" cy="77" rx="7.4" ry="7.4"/>
<ellipse transform="matrix(0.7575 -0.6529 0.6529 0.7575 239.3378 932.4717)" class="st1" cx="1374.7" cy="144.1" rx="7.4" ry="7.4"/>
<ellipse transform="matrix(0.7575 -0.6529 0.6529 0.7575 226.4184 1019.084)" class="st2" cx="1484.8" cy="204.8" rx="7.4" ry="7.4"/>
<ellipse transform="matrix(0.7575 -0.6529 0.6529 0.7575 159.8702 1002.2203)" class="st3" cx="1428.9" cy="285.9" rx="7.4" ry="7.4"/>
<ellipse transform="matrix(0.7575 -0.6529 0.6529 0.7575 97.1895 985.3466)" class="st5" cx="1374.8" cy="361.9" rx="7.4" ry="7.4"/>
<ellipse transform="matrix(0.7575 -0.6529 0.6529 0.7575 178.1519 1125.9502)" class="st1" cx="1604.5" cy="323.2" rx="7.4" ry="7.4"/>
<ellipse transform="matrix(0.7575 -0.6529 0.6529 0.7575 229.1502 1108.5983)" class="st4" cx="1606.7" cy="245.9" rx="7.4" ry="7.4"/>
<ellipse transform="matrix(0.7575 -0.6529 0.6529 0.7575 287.131 1116.5901)" class="st5" cx="1646.4" cy="171.8" rx="7.4" ry="7.4"/>
<ellipse transform="matrix(0.7575 -0.6529 0.6529 0.7575 347.7773 1052.9683)" class="st2" cx="1591.1" cy="58.4" rx="7.4" ry="7.4"/>
<ellipse transform="matrix(0.7575 -0.6529 0.6529 0.7575 384.5162 1268.845)" class="st4" cx="1900.1" cy="116.9" rx="7.4" ry="7.4"/>
<ellipse transform="matrix(0.7575 -0.6529 0.6529 0.7575 421.7401 1135.0244)" class="st1" cx="1738.6" cy="-0.1" rx="7.4" ry="7.4"/>
<ellipse transform="matrix(0.7575 -0.6529 0.6529 0.7575 379.0941 1020.2415)" class="st3" cx="1562.7" cy="-0.1" rx="7.4" ry="7.4"/>
<ellipse transform="matrix(0.7575 -0.6529 0.6529 0.7575 302.2297 815.5134)" class="st3" cx="1248.8" cy="1" rx="7.4" ry="7.4"/>
<ellipse transform="matrix(0.7575 -0.6529 0.6529 0.7575 278.6308 751.9869)" class="st3" cx="1151.5" cy="1" rx="7.4" ry="7.4"/>
<ellipse transform="matrix(0.7575 -0.6529 0.6529 0.7575 255.8484 689.9239)" class="st5" cx="1056.5" cy="0.6" rx="7.4" ry="7.4"/>
<ellipse transform="matrix(0.7575 -0.6529 0.6529 0.7575 154.1287 416.8525)" class="st4" cx="638.1" cy="1" rx="7.4" ry="7.4"/>
<ellipse transform="matrix(0.7575 -0.6529 0.6529 0.7575 12.3611 205.2539)" class="st1" cx="282.4" cy="86" rx="7.4" ry="7.4"/>
<ellipse transform="matrix(0.7575 -0.6529 0.6529 0.7575 59.5203 231.1792)" class="st3" cx="340.9" cy="35.5" rx="7.4" ry="7.4"/>
<ellipse transform="matrix(0.7575 -0.6529 0.6529 0.7575 -93.3432 146.9467)" class="st4" cx="151.1" cy="199.1" rx="7.4" ry="7.4"/>
<line class="st0" x1="78" y1="102.8" x2="0" y2="231.4"/>
<ellipse transform="matrix(0.7575 -0.6529 0.6529 0.7575 -151.0774 56.1193)" class="st3" cx="0" cy="231.4" rx="7.4" ry="7.4"/>
<ellipse transform="matrix(0.7575 -0.6529 0.6529 0.7575 -47.8768 75.8846)" class="st3" cx="78.2" cy="102.4" rx="7.4" ry="7.4"/>
<ellipse transform="matrix(0.7575 -0.6529 0.6529 0.7575 184.8851 1046.8032)" class="st3" cx="1501.4" cy="274.6" rx="7.4" ry="7.4"/>
</svg>
