<?xml version="1.0" encoding="utf-8"?>
<!-- Generator: Adobe Illustrator 20.1.0, SVG Export Plug-In . SVG Version: 6.00 Build 0)  -->
<svg version="1.1" id="Layer_1" xmlns="http://www.w3.org/2000/svg" xmlns:xlink="http://www.w3.org/1999/xlink" x="0px" y="0px"
	 viewBox="0 0 55 55" style="enable-background:new 0 0 55 55;" xml:space="preserve">
<style type="text/css">
	.st0{fill:none;stroke:#5D5E5E;stroke-miterlimit:10;}
	.st1{fill:none;stroke:#4DAF4F;stroke-miterlimit:10;}
	.st2{fill:none;stroke:#F8981D;stroke-miterlimit:10;}
	.st3{fill:none;stroke:#3292D0;stroke-miterlimit:10;}
	.st4{fill:none;stroke:#009789;stroke-miterlimit:10;}
</style>
<g>
	<polygon class="st0" points="22.9,35.7 18.6,28.2 22.9,20.8 31.5,20.8 35.8,28.2 31.5,35.7 	"/>
	<polygon class="st1" points="22.9,19 18.6,11.5 22.9,4 31.5,4 35.8,11.5 31.5,19 	"/>
	<polygon class="st2" points="37.4,27.4 33.1,19.9 37.4,12.4 46,12.4 50.3,19.9 46,27.4 	"/>
	<polygon class="st3" points="8.4,44.1 4,36.6 8.4,29.2 17,29.2 21.3,36.6 17,44.1 	"/>
	<polygon class="st4" points="8.4,27.3 4,19.8 8.4,12.4 17,12.4 21.3,19.8 17,27.3 	"/>
</g>
</svg>
