<?xml version="1.0" encoding="utf-8"?>
<!-- Generator: Adobe Illustrator 18.1.1, SVG Export Plug-In . SVG Version: 6.00 Build 0)  -->
<svg version="1.1" id="Layer_1" xmlns="http://www.w3.org/2000/svg" xmlns:xlink="http://www.w3.org/1999/xlink" x="0px" y="0px"
	 viewBox="0 0 55 55" enable-background="new 0 0 55 55" xml:space="preserve">
<g>
	<polygon fill="#5D5E5E" points="22.9,35.7 18.6,28.2 22.9,20.8 31.5,20.8 35.8,28.2 31.5,35.7 	"/>
	<polygon fill="#4DAF4F" points="22.9,19 18.6,11.5 22.9,4 31.5,4 35.8,11.5 31.5,19 	"/>
	<polygon fill="#F8981D" points="37.4,27.4 33.1,19.9 37.4,12.4 46,12.4 50.3,19.9 46,27.4 	"/>
	<polygon fill="#3292D0" points="8.4,44.1 4,36.6 8.4,29.2 17,29.2 21.3,36.6 17,44.1 	"/>
	<polygon fill="#009789" points="8.4,27.3 4,19.8 8.4,12.4 17,12.4 21.3,19.8 17,27.3 	"/>
</g>
</svg>
