<?xml version="1.0" encoding="utf-8"?>
<!-- Generator: Adobe Illustrator 18.1.1, SVG Export Plug-In . SVG Version: 6.00 Build 0)  -->
<!DOCTYPE svg PUBLIC "-//W3C//DTD SVG 1.1//EN" "http://www.w3.org/Graphics/SVG/1.1/DTD/svg11.dtd">
<svg version="1.1" id="Layer_1" xmlns="http://www.w3.org/2000/svg" xmlns:xlink="http://www.w3.org/1999/xlink" x="0px" y="0px"
	 viewBox="0 0 1200 900" enable-background="new 0 0 1200 900" xml:space="preserve">
<path fill="#5D5E5E" d="M598.2,0C351.6,0,150,201.6,150,448.2c0,248.4,201.6,448.2,448.2,448.2c248.4,0,448.2-201.6,448.2-448.2
	S846.6,0,598.2,0z M695.4,448.2h-63c0,100.8,0,223.2,0,223.2h-93.6c0,0,0-122.4,0-223.2h-45V369h45v-50.4c0-36,18-93.6,93.6-93.6
	h68.4v77.4c0,0-41.4,0-50.4,0s-19.8,3.6-19.8,21.6v46.8h70.2L695.4,448.2z"/>
</svg>
