<?xml version="1.0" encoding="utf-8"?>
<!-- Generator: Adobe Illustrator 18.1.1, SVG Export Plug-In . SVG Version: 6.00 Build 0)  -->
<svg version="1.1" id="Layer_1" xmlns="http://www.w3.org/2000/svg" xmlns:xlink="http://www.w3.org/1999/xlink" x="0px" y="0px"
	 viewBox="0 124.7 600 463.9" enable-background="new 0 124.7 600 463.9" xml:space="preserve">
<polygon opacity="0.3" enable-background="new    " points="100,292 69.8,240.1 100,188 160,188 190.1,240.1 160,292 "/>
<polygon opacity="0.1" enable-background="new    " points="198.8,234.7 168.8,182.5 198.8,130.5 259,130.5 289,182.5 259,234.7 "/>
<polygon opacity="5.000000e-02" enable-background="new    " points="199,349.3 169,297.2 199,245.2 259.1,245.2 289.1,297.2 
	259.1,349.3 "/>
<polygon opacity="0.3" enable-background="new    " points="299.4,408.5 269.4,356.5 299.4,304.5 359.5,304.5 389.5,356.5 
	359.5,408.5 "/>
<polygon opacity="0.2" enable-background="new    " points="398.4,349.3 368.3,297.2 398.4,245.2 458.4,245.2 488.5,297.2 
	458.4,349.3 "/>
<polygon opacity="0.2" enable-background="new    " points="298.8,292 268.7,240.1 298.8,188 358.8,188 388.9,240.1 358.8,292 "/>
<polygon opacity="0.2" enable-background="new    " points="398.4,234.8 368.3,182.7 398.4,130.7 458.4,130.7 488.5,182.7 
	458.4,234.8 "/>
<polygon opacity="0.3" enable-background="new    " points="498.2,292.4 468.2,240.3 498.2,188.3 558.4,188.3 588.4,240.3 
	558.4,292.4 "/>
<polygon opacity="0.1" enable-background="new    " points="398.5,467.3 368.5,415.3 398.5,363.3 458.6,363.3 488.6,415.3 
	458.6,467.3 "/>
<polygon opacity="0.2" enable-background="new    " points="498.1,523.6 468,471.4 498.1,419.6 558.1,419.6 588.2,471.4 
	558.1,523.6 "/>
<polygon opacity="0.2" enable-background="new    " points="498.2,408.5 468.2,356.5 498.2,304.5 558.4,304.5 588.4,356.5 
	558.4,408.5 "/>
<polygon opacity="0.2" enable-background="new    " points="198.1,463 168.1,410.9 198.1,359 258.2,359 288.2,410.9 258.2,463 "/>
<polygon opacity="0.2" enable-background="new    " points="98.4,405.9 68.4,353.8 98.4,301.9 158.5,301.9 188.5,353.8 158.5,405.9 
	"/>
<polygon opacity="0.3" enable-background="new    " points="198.1,579.2 168.1,527.2 198.1,475.1 258.2,475.1 288.2,527.2 
	258.2,579.2 "/>
<polygon opacity="0.1" enable-background="new    " points="98.4,522.1 68.4,470 98.4,418 158.5,418 188.5,470 158.5,522.1 "/>
<polygon opacity="5.000000e-02" enable-background="new    " points="298.8,523.9 268.7,471.8 298.8,419.8 358.8,419.8 388.9,471.8 
	358.8,523.9 "/>
<polygon opacity="0.2" enable-background="new    " points="399,581.5 369,529.6 399,477.4 459.1,477.4 489.1,529.6 459.1,581.5 "/>
<polygon opacity="0.2" enable-background="new    " points="189.2,587.9 159.1,536 99.1,536 69,587.9 69.4,588.7 188.9,588.7 "/>
<polygon opacity="0.2" enable-background="new    " points="359.5,536.6 299.4,536.6 269.4,588.7 389.5,588.7 "/>
<polygon opacity="0.2" enable-background="new    " points="558.4,536.6 498.2,536.6 468.2,588.7 588.4,588.7 "/>
<polygon opacity="0.2" enable-background="new    " points="159.1,176.2 188.9,124.7 69.4,124.7 99.1,176.2 "/>
<polygon opacity="0.2" enable-background="new    " points="359.3,176.8 389.4,124.7 269.2,124.7 299.3,176.8 "/>
<polygon opacity="0.2" enable-background="new    " points="558.1,176.8 588.2,124.7 468,124.7 498.1,176.8 "/>
<polygon opacity="5.000000e-02" enable-background="new    " points="58.6,234.7 88.6,182.5 58.6,130.5 -1.2,130.5 -1.2,234.7 "/>
<polygon opacity="0.3" enable-background="new    " points="57.6,462.9 87.6,410.7 57.6,358.7 -1.2,358.7 -1.2,462.9 "/>
<polygon opacity="0.2" enable-background="new    " points="-1.2,476.8 -1.2,580.9 57.7,580.9 87.7,528.9 57.7,476.8 "/>
<polygon opacity="0.2" enable-background="new    " points="57.6,347.7 87.6,295.7 57.6,243.5 -1.2,243.5 -1.2,347.7 "/>
<polygon opacity="5.000000e-02" enable-background="new    " points="571.3,182.5 601.3,234.7 601.7,234.7 601.7,130.5 601.3,130.5 
	"/>
<polygon opacity="0.3" enable-background="new    " points="570.2,410.7 600.4,462.9 601.7,462.9 601.7,358.7 600.4,358.7 "/>
<polygon opacity="0.2" enable-background="new    " points="600.5,476.8 570.5,528.9 600.5,580.9 601.7,580.9 601.7,476.8 "/>
<polygon opacity="0.2" enable-background="new    " points="570.2,295.7 600.4,347.7 601.7,347.7 601.7,243.5 600.4,243.5 "/>
</svg>
