<?xml version="1.0" encoding="utf-8"?>
<!-- Generator: Adobe Illustrator 18.1.1, SVG Export Plug-In . SVG Version: 6.00 Build 0)  -->
<!DOCTYPE svg PUBLIC "-//W3C//DTD SVG 1.1//EN" "http://www.w3.org/Graphics/SVG/1.1/DTD/svg11.dtd">
<svg version="1.1" id="Layer_1" xmlns="http://www.w3.org/2000/svg" xmlns:xlink="http://www.w3.org/1999/xlink" x="0px" y="0px"
	 viewBox="0 0 100 100" enable-background="new 0 0 100 100" xml:space="preserve">
<linearGradient id="SVGID_1_" gradientUnits="userSpaceOnUse" x1="7.5" y1="50" x2="92.5" y2="50" gradientTransform="matrix(1 0 0 -1 0 100)">
	<stop  offset="0" style="stop-color:#9ADBF8"/>
	<stop  offset="1" style="stop-color:#9BDBF8"/>
</linearGradient>
<path fill="url(#SVGID_1_)" d="M50,7.5C26.5,7.5,7.5,26.5,7.5,50s19,42.5,42.5,42.5s42.5-19,42.5-42.5S73.5,7.5,50,7.5z M50,72.8
	c-12.6,0-22.8-10.2-22.8-22.8S37.4,27.2,50,27.2S72.8,37.4,72.8,50S62.6,72.8,50,72.8z"/>
<g id="D">
	<linearGradient id="SVGID_2_" gradientUnits="userSpaceOnUse" x1="38.3" y1="50" x2="84.5" y2="50">
		<stop  offset="0" style="stop-color:#89D84C"/>
		<stop  offset="1" style="stop-color:#89D84C"/>
	</linearGradient>
	<path fill="url(#SVGID_2_)" d="M50,15.5c-4.1,0-8,0.7-11.7,2v13v39v13c3.6,1.3,7.6,2,11.7,2c19.1,0,34.5-15.4,34.5-34.5
		S69.1,15.5,50,15.5z M50,72.8V27.3c12.6,0,22.7,10.2,22.7,22.7S62.6,72.8,50,72.8z	">
<animateTransform  type="rotate" fill="remove" restart="always" calcMode="linear" additive="replace" accumulate="none" repeatCount="indefinite" dur="2s" begin=".4s" to="360 50 50" attributeName="transform" from="0 50 50" attributeType="XML">
			</animateTransform>
	</path>
</g>
<g id="C">
	
		<linearGradient id="SVGID_3_" gradientUnits="userSpaceOnUse" x1="7.500601e-002" y1="49.95" x2="85.4" y2="49.95" gradientTransform="matrix(1 0 0 -1 0 100)">
		<stop  offset="0" style="stop-color:#2D3639"/>
		<stop  offset="1" style="stop-color:#2D3639"/>
	</linearGradient>
	<path fill="url(#SVGID_3_)" d="M25.5,74.5C12,61,12,39.1,25.5,25.6s35.4-13.5,49,0l10.9-10.9c-19.5-19.5-51.2-19.5-70.7,0
		s-19.5,51.2,0,70.7s51.2,19.5,70.7,0L74.5,74.5C61,88,39,88,25.5,74.5z	">
<animateTransform  type="rotate" fill="remove" restart="always" calcMode="linear" additive="replace" accumulate="none" repeatCount="indefinite" dur="4s" begin=".4s" to="0 50 50" attributeName="transform" from="360 50 50" attributeType="XML">
			</animateTransform>
	</path>
</g>
</svg>
