<?xml version="1.0" encoding="utf-8"?>
<!-- Generator: Adobe Illustrator 18.1.1, SVG Export Plug-In . SVG Version: 6.00 Build 0)  -->
<!DOCTYPE svg PUBLIC "-//W3C//DTD SVG 1.1//EN" "http://www.w3.org/Graphics/SVG/1.1/DTD/svg11.dtd">
<svg version="1.1" id="Layer_1" xmlns="http://www.w3.org/2000/svg" xmlns:xlink="http://www.w3.org/1999/xlink" x="0px" y="0px"
	 viewBox="0 0 1200 900" enable-background="new 0 0 1200 900" xml:space="preserve">
<g>
	<path fill="#2B3638" d="M508.2,246.6c-36-1.8-59.4,34.2-54,81c5.4,46.8,39.6,79.2,75.6,81c36,1.8,55.8-28.8,50.4-75.6
		C574.8,286.2,544.2,248.4,508.2,246.6z"/>
	<path fill="#2B3638" d="M524.4,505.8c-54,0-99,34.2-99,73.8c0,41.4,37.8,73.8,91.8,73.8c75.6,0,100.8-32.4,100.8-72
		c0-5.4,0-9-1.8-14.4c-5.4-23.4-28.8-36-57.6-55.8C547.8,507.6,537,505.8,524.4,505.8z"/>
	<path fill="#2B3638" d="M600,0C351.6,0,150,201.6,150,450s201.6,450,450,450s450-201.6,450-450C1051.8,201.6,850.2,0,600,0z
		 M634.2,331.2c0,28.8-16.2,52.2-39.6,70.2c-21.6,18-27,25.2-27,39.6c0,12.6,27,32.4,39.6,41.4c43.2,32.4,52.2,52.2,52.2,91.8
		c0,50.4-54,100.8-142.2,100.8c-77.4,0-142.2-30.6-142.2-81s54-104.4,131.4-104.4c9,0,16.2,0,23.4,0C519,478.8,510,469.8,510,455.4
		c0-9,3.6-18,7.2-25.2c-3.6,0-9,0-12.6,0c-63,0-100.8-45-100.8-100.8c0-54,55.8-104.4,124.2-104.4c34.2,0,133.2,0,133.2,0
		l-28.8,30.6h-34.2C621.6,270,634.2,298.8,634.2,331.2z M825,324h-61.2v61.2h-30.6V324H672v-30.6h61.2v-61.2h30.6v61.2H825L825,324
		L825,324z"/>
</g>
</svg>
