<?xml version="1.0" encoding="utf-8"?>
<!-- Generator: Adobe Illustrator 18.1.1, SVG Export Plug-In . SVG Version: 6.00 Build 0)  -->
<!DOCTYPE svg PUBLIC "-//W3C//DTD SVG 1.1//EN" "http://www.w3.org/Graphics/SVG/1.1/DTD/svg11.dtd">
<svg version="1.1" id="Layer_1" xmlns="http://www.w3.org/2000/svg" xmlns:xlink="http://www.w3.org/1999/xlink" x="0px" y="0px"
	 viewBox="0 104 1200 692" enable-background="new 0 104 1200 692" xml:space="preserve">
<polygon opacity="0.3" fill="#010101" enable-background="new    " points="151.9,353.7 106.1,275.5 151.9,198.2 241.8,198.2 
	286.7,275.5 241.8,353.7 "/>
<polygon opacity="0.2" fill="#010101" enable-background="new    " points="299.3,267.4 254.4,189.2 299.3,111.9 390.1,111.9 
	435.1,189.2 390.1,267.4 "/>
<polygon opacity="5.000000e-002" fill="#010101" enable-background="new    " points="300.2,439.1 255.3,361.8 300.2,283.6 
	390.1,283.6 435.1,361.8 390.1,439.1 "/>
<polygon fill="#FF9800" points="747,528.1 702,449.9 747,372.5 836.9,372.5 881.8,449.9 836.9,528.1 "/>
<polygon opacity="0.2" fill="#010101" enable-background="new    " points="895.3,439.1 850.3,361.8 895.3,283.6 985.2,283.6 
	1030.1,361.8 985.2,439.1 "/>
<polygon opacity="0.2" fill="#010101" enable-background="new    " points="746.1,353.7 701.1,275.5 746.1,198.2 836,198.2 
	880.9,275.5 836,353.7 "/>
<polygon opacity="0.2" fill="#010101" enable-background="new    " points="895.3,268.3 850.3,190.1 895.3,111.9 985.2,111.9 
	1030.1,190.1 985.2,268.3 "/>
<polygon fill="#FF9800" points="1044.5,354.6 999.6,276.4 1044.5,198.2 1135.3,198.2 1180.2,276.4 1135.3,354.6 "/>
<polygon opacity="0.1" fill="#010101" enable-background="new    " points="895.3,616.1 850.3,537.9 895.3,460.6 985.2,460.6 
	1030.1,537.9 985.2,616.1 "/>
<polygon opacity="0.2" fill="#010101" enable-background="new    " points="1044.5,700.6 999.6,622.4 1044.5,545.1 1134.4,545.1 
	1179.3,622.4 1134.4,700.6 "/>
<polygon opacity="0.2" fill="#010101" enable-background="new    " points="1044.5,528.1 999.6,449.9 1044.5,372.5 1135.3,372.5 
	1180.2,449.9 1135.3,528.1 "/>
<polygon opacity="0.2" fill="#010101" enable-background="new    " points="298.4,609.9 253.5,531.6 298.4,454.3 388.3,454.3 
	433.3,531.6 388.3,609.9 "/>
<polygon opacity="0.2" fill="#010101" enable-background="new    " points="149.2,524.5 104.3,446.3 149.2,368.1 239.1,368.1 
	284,446.3 239.1,524.5 "/>
<polygon opacity="0.3" fill="#010101" enable-background="new    " points="298.4,784.2 253.5,706 298.4,627.8 388.3,627.8 
	433.3,706 388.3,784.2 "/>
<polygon opacity="0.1" fill="#010101" enable-background="new    " points="149.2,697.9 104.3,620.6 149.2,542.4 239.1,542.4 
	284,620.6 239.1,697.9 "/>
<polygon opacity="0.2" fill="#010101" enable-background="new    " points="746.1,700.6 701.1,622.4 746.1,545.1 836,545.1 
	880.9,622.4 836,700.6 "/>
<polygon opacity="0.2" fill="#010101" enable-background="new    " points="896.2,786.9 851.2,709.6 896.2,631.4 986.1,631.4 
	1031,709.6 986.1,786.9 "/>
<polygon fill="#FF9800" points="284.9,797.7 240,719.5 150.1,719.5 105.2,797.7 106.1,798.6 284.9,798.6 "/>
<polygon opacity="0.2" fill="#010101" enable-background="new    " points="836.9,720.4 747,720.4 702,798.6 881.8,798.6 "/>
<polygon opacity="0.2" fill="#010101" enable-background="new    " points="1135.3,720.4 1044.5,720.4 999.6,798.6 1180.2,798.6 "/>
<polygon fill="#FF9800" points="240,179.3 284.9,102 106.1,102 150.1,179.3 "/>
<polygon opacity="0.2" fill="#010101" enable-background="new    " points="836.9,180.2 881.8,102 702,102 747,180.2 "/>
<polygon opacity="0.2" fill="#010101" enable-background="new    " points="1134.4,180.2 1179.3,102 999.6,102 1044.5,180.2 "/>
<polygon opacity="5.000000e-002" fill="#010101" enable-background="new    " points="89.9,267.4 134.8,189.2 89.9,111.9 0,111.9 
	0,267.4 "/>
<polygon fill="#FF9800" points="88.1,609.9 133,531.6 88.1,453.4 0,453.4 0,609.9 "/>
<polygon opacity="0.2" fill="#010101" enable-background="new    " points="0,630.5 0,786 88.1,786 133,708.7 88.1,630.5 "/>
<polygon opacity="0.2" fill="#010101" enable-background="new    " points="88.1,437.3 133,359.1 88.1,280.9 0,280.9 0,437.3 "/>
<polygon opacity="5.000000e-002" fill="#010101" enable-background="new    " points="1154.2,189.2 1199.1,267.4 1200,267.4 
	1200,111.9 1199.1,111.9 "/>
<polygon opacity="0.3" fill="#010101" enable-background="new    " points="1152.4,531.6 1198.2,609.9 1200,609.9 1200,453.4 
	1198.2,453.4 "/>
<polygon opacity="0.2" fill="#010101" enable-background="new    " points="1198.2,630.5 1153.3,708.7 1198.2,786 1200,786 
	1200,630.5 "/>
<polygon opacity="0.2" fill="#010101" enable-background="new    " points="1152.4,359.1 1198.2,437.3 1200,437.3 1200,280.9 
	1198.2,280.9 "/>
<polygon opacity="0.3" fill="#010101" enable-background="new    " points="448.5,353.7 402.7,275.5 448.5,198.2 538.4,198.2 
	583.4,275.5 538.4,353.7 "/>
<polygon opacity="0.1" fill="#010101" enable-background="new    " points="596,267.4 551,189.2 596,111.9 686.7,111.9 731.7,189.2 
	686.7,267.4 "/>
<polygon opacity="5.000000e-002" fill="#5D5E5E" enable-background="new    " points="596.9,439.1 551.9,361.8 596.9,283.6 
	686.7,283.6 731.7,361.8 686.7,439.1 "/>
<polygon opacity="0.3" fill="#010101" enable-background="new    " points="595.1,609.9 550.1,531.6 595.1,454.3 684.9,454.3 
	729.9,531.6 684.9,609.9 "/>
<polygon opacity="0.2" fill="#010101" enable-background="new    " points="445.8,524.5 400.9,446.3 445.8,368.1 535.7,368.1 
	580.7,446.3 535.7,524.5 "/>
<polygon opacity="0.1" fill="#010101" enable-background="new    " points="595.1,784.2 550.1,706 595.1,627.8 684.9,627.8 
	729.9,706 684.9,784.2 "/>
<polygon opacity="0.1" fill="#010101" enable-background="new    " points="445.8,697.9 400.9,620.6 445.8,542.4 535.7,542.4 
	580.7,620.6 535.7,697.9 "/>
<polygon opacity="0.45" fill="#010101" enable-background="new    " points="581.6,797.7 536.6,719.5 446.7,719.5 401.8,797.7 
	402.7,798.6 581.6,798.6 "/>
<polygon opacity="0.45" fill="#010101" enable-background="new    " points="536.6,179.3 581.6,102 402.7,102 446.7,179.3 "/>
</svg>
