<?xml version="1.0" encoding="utf-8"?>
<!-- Generator: Adobe Illustrator 18.1.1, SVG Export Plug-In . SVG Version: 6.00 Build 0)  -->
<!DOCTYPE svg PUBLIC "-//W3C//DTD SVG 1.1//EN" "http://www.w3.org/Graphics/SVG/1.1/DTD/svg11.dtd">
<svg version="1.1" id="Layer_1" xmlns="http://www.w3.org/2000/svg" xmlns:xlink="http://www.w3.org/1999/xlink" x="0px" y="0px"
	 viewBox="0 104 1200 692" enable-background="new 0 104 1200 692" xml:space="preserve">
<polygon opacity="0.3" fill="#010101" enable-background="new    " points="151.9,353.4 106.1,275.2 151.9,197.9 241.8,197.9 
	286.7,275.2 241.8,353.4 "/>
<polygon opacity="0.2" fill="#010101" enable-background="new    " points="299.3,267.1 254.4,188.9 299.3,111.6 390.1,111.6 
	435.1,188.9 390.1,267.1 "/>
<polygon fill="#2F92D0" enable-background="new    " points="300.2,438.8 255.3,361.5 300.2,283.3 390.1,283.3 435.1,361.5 
	390.1,438.8 "/>
<polygon opacity="0.45" fill="#010101" enable-background="new    " points="747,527.8 702,449.6 747,372.2 836.9,372.2 
	881.8,449.6 836.9,527.8 "/>
<polygon opacity="0.2" fill="#010101" enable-background="new    " points="895.3,438.8 850.3,361.5 895.3,283.3 985.2,283.3 
	1030.1,361.5 985.2,438.8 "/>
<polygon opacity="0.2" fill="#010101" enable-background="new    " points="746.1,353.4 701.1,275.2 746.1,197.9 836,197.9 
	880.9,275.2 836,353.4 "/>
<polygon fill="#2F92D0" enable-background="new    " points="895.3,268 850.3,189.8 895.3,111.6 985.2,111.6 1030.1,189.8 
	985.2,268 "/>
<polygon opacity="0.3" fill="#010101" enable-background="new    " points="1044.5,354.3 999.6,276.1 1044.5,197.9 1135.3,197.9 
	1180.2,276.1 1135.3,354.3 "/>
<polygon opacity="0.1" fill="#010101" enable-background="new    " points="895.3,615.8 850.3,537.6 895.3,460.3 985.2,460.3 
	1030.1,537.6 985.2,615.8 "/>
<polygon opacity="0.2" fill="#010101" enable-background="new    " points="1044.5,700.3 999.6,622.1 1044.5,544.8 1134.4,544.8 
	1179.3,622.1 1134.4,700.3 "/>
<polygon opacity="0.45" fill="#010101" enable-background="new    " points="1044.5,527.8 999.6,449.6 1044.5,372.2 1135.3,372.2 
	1180.2,449.6 1135.3,527.8 "/>
<polygon opacity="0.2" fill="#010101" enable-background="new    " points="298.4,609.6 253.5,531.3 298.4,454 388.3,454 
	433.3,531.3 388.3,609.6 "/>
<polygon opacity="0.2" fill="#010101" enable-background="new    " points="149.2,524.2 104.3,446 149.2,367.8 239.1,367.8 284,446 
	239.1,524.2 "/>
<polygon opacity="0.3" fill="#010101" enable-background="new    " points="298.4,783.9 253.5,705.7 298.4,627.5 388.3,627.5 
	433.3,705.7 388.3,783.9 "/>
<polygon opacity="0.1" fill="#010101" enable-background="new    " points="149.2,697.6 104.3,620.3 149.2,542.1 239.1,542.1 
	284,620.3 239.1,697.6 "/>
<polygon opacity="0.2" fill="#010101" enable-background="new    " points="746.1,700.3 701.1,622.1 746.1,544.8 836,544.8 
	880.9,622.1 836,700.3 "/>
<polygon opacity="0.2" fill="#010101" enable-background="new    " points="896.2,786.6 851.2,709.3 896.2,631.1 986.1,631.1 
	1031,709.3 986.1,786.6 "/>
<polygon opacity="0.2" fill="#010101" enable-background="new    " points="284.9,797.4 240,719.2 150.1,719.2 105.2,797.4 
	106.1,798.3 284.9,798.3 "/>
<polygon opacity="0.2" fill="#010101" enable-background="new    " points="836.9,720.1 747,720.1 702,798.3 881.8,798.3 "/>
<polygon opacity="0.2" fill="#010101" enable-background="new    " points="1135.3,720.1 1044.5,720.1 999.6,798.3 1180.2,798.3 "/>
<polygon opacity="0.2" fill="#010101" enable-background="new    " points="240,179 284.9,101.7 106.1,101.7 150.1,179 "/>
<polygon opacity="0.2" fill="#010101" enable-background="new    " points="836.9,179.9 881.8,101.7 702,101.7 747,179.9 "/>
<polygon opacity="0.2" fill="#010101" enable-background="new    " points="1134.4,179.9 1179.3,101.7 999.6,101.7 1044.5,179.9 "/>
<polygon opacity="5.000000e-002" fill="#010101" enable-background="new    " points="89.9,267.1 134.8,188.9 89.9,111.6 0,111.6 
	0,267.1 "/>
<polygon opacity="0.3" fill="#010101" enable-background="new    " points="88.1,609.6 133,531.3 88.1,453.1 0,453.1 0,609.6 "/>
<polygon opacity="0.2" fill="#010101" enable-background="new    " points="0,630.2 0,785.7 88.1,785.7 133,708.4 88.1,630.2 "/>
<polygon opacity="0.2" fill="#010101" enable-background="new    " points="88.1,437 133,358.8 88.1,280.6 0,280.6 0,437 "/>
<polygon opacity="5.000000e-002" fill="#010101" enable-background="new    " points="1154.2,188.9 1199.1,267.1 1200,267.1 
	1200,111.6 1199.1,111.6 "/>
<polygon opacity="0.3" fill="#010101" enable-background="new    " points="1152.4,531.3 1198.2,609.6 1200,609.6 1200,453.1 
	1198.2,453.1 "/>
<polygon opacity="0.2" fill="#010101" enable-background="new    " points="1198.2,630.2 1153.3,708.4 1198.2,785.7 1200,785.7 
	1200,630.2 "/>
<polygon opacity="0.2" fill="#010101" enable-background="new    " points="1152.4,358.8 1198.2,437 1200,437 1200,280.6 
	1198.2,280.6 "/>
<polygon opacity="0.3" fill="#010101" enable-background="new    " points="448.5,353.4 402.7,275.2 448.5,197.9 538.4,197.9 
	583.4,275.2 538.4,353.4 "/>
<polygon opacity="0.1" fill="#010101" enable-background="new    " points="596,267.1 551,188.9 596,111.6 686.7,111.6 731.7,188.9 
	686.7,267.1 "/>
<polygon opacity="5.000000e-002" fill="#5D5E5E" enable-background="new    " points="596.9,438.8 551.9,361.5 596.9,283.3 
	686.7,283.3 731.7,361.5 686.7,438.8 "/>
<polygon opacity="0.3" fill="#010101" enable-background="new    " points="595.1,609.6 550.1,531.3 595.1,454 684.9,454 
	729.9,531.3 684.9,609.6 "/>
<polygon opacity="0.2" fill="#010101" enable-background="new    " points="445.8,524.2 400.9,446 445.8,367.8 535.7,367.8 
	580.7,446 535.7,524.2 "/>
<polygon fill="#2F92D0" enable-background="new    " points="595.1,783.9 550.1,705.7 595.1,627.5 684.9,627.5 729.9,705.7 
	684.9,783.9 "/>
<polygon opacity="0.1" fill="#010101" enable-background="new    " points="445.8,697.6 400.9,620.3 445.8,542.1 535.7,542.1 
	580.7,620.3 535.7,697.6 "/>
<polygon opacity="0.45" fill="#010101" enable-background="new    " points="581.6,797.4 536.6,719.2 446.7,719.2 401.8,797.4 
	402.7,798.3 581.6,798.3 "/>
<polygon opacity="0.45" fill="#010101" enable-background="new    " points="536.6,179 581.6,101.7 402.7,101.7 446.7,179 "/>
</svg>
