<?xml version="1.0" encoding="utf-8"?>
<!-- Generator: Adobe Illustrator 18.1.1, SVG Export Plug-In . SVG Version: 6.00 Build 0)  -->
<!DOCTYPE svg PUBLIC "-//W3C//DTD SVG 1.1//EN" "http://www.w3.org/Graphics/SVG/1.1/DTD/svg11.dtd">
<svg version="1.1" id="Layer_1" xmlns="http://www.w3.org/2000/svg" xmlns:xlink="http://www.w3.org/1999/xlink" x="0px" y="0px"
	 viewBox="0 209 1200 691" enable-background="new 0 209 1200 691" xml:space="preserve">
<polygon fill="#009688" enable-background="new    " points="151.9,457.1 106.1,378.9 151.9,301.6 241.8,301.6 286.7,378.9 
	241.8,457.1 "/>
<polygon opacity="0.2" fill="#010101" enable-background="new    " points="299.3,370.8 254.4,292.6 299.3,215.3 390.1,215.3 
	435.1,292.6 390.1,370.8 "/>
<polygon opacity="5.000000e-002" fill="#010101" enable-background="new    " points="300.2,542.5 255.3,465.2 300.2,387 390.1,387 
	435.1,465.2 390.1,542.5 "/>
<polygon opacity="0.45" fill="#010101" enable-background="new    " points="747,631.5 702,553.3 747,475.9 836.9,475.9 
	881.8,553.3 836.9,631.5 "/>
<polygon opacity="0.2" fill="#010101" enable-background="new    " points="895.3,542.5 850.3,465.2 895.3,387 985.2,387 
	1030.1,465.2 985.2,542.5 "/>
<polygon opacity="0.2" fill="#010101" enable-background="new    " points="746.1,457.1 701.1,378.9 746.1,301.6 836,301.6 
	880.9,378.9 836,457.1 "/>
<polygon opacity="0.2" fill="#010101" enable-background="new    " points="895.3,371.7 850.3,293.5 895.3,215.3 985.2,215.3 
	1030.1,293.5 985.2,371.7 "/>
<polygon opacity="0.3" fill="#010101" enable-background="new    " points="1044.5,458 999.6,379.8 1044.5,301.6 1135.3,301.6 
	1180.2,379.8 1135.3,458 "/>
<polygon opacity="0.1" fill="#010101" enable-background="new    " points="895.3,719.5 850.3,641.3 895.3,564 985.2,564 
	1030.1,641.3 985.2,719.5 "/>
<polygon opacity="0.2" fill="#010101" enable-background="new    " points="1044.5,804 999.6,725.8 1044.5,648.5 1134.4,648.5 
	1179.3,725.8 1134.4,804 "/>
<polygon opacity="0.2" fill="#010101" enable-background="new    " points="1044.5,631.5 999.6,553.3 1044.5,475.9 1135.3,475.9 
	1180.2,553.3 1135.3,631.5 "/>
<polygon opacity="0.2" fill="#010101" enable-background="new    " points="298.4,713.3 253.5,635 298.4,557.7 388.3,557.7 
	433.3,635 388.3,713.3 "/>
<polygon opacity="0.45" fill="#010101" enable-background="new    " points="149.2,627.9 104.3,549.7 149.2,471.5 239.1,471.5 
	284,549.7 239.1,627.9 "/>
<polygon fill="#009688" enable-background="new    " points="298.4,887.6 253.5,809.4 298.4,731.2 388.3,731.2 433.3,809.4 
	388.3,887.6 "/>
<polygon opacity="0.1" fill="#010101" enable-background="new    " points="149.2,801.3 104.3,724 149.2,645.8 239.1,645.8 284,724 
	239.1,801.3 "/>
<polygon opacity="0.2" fill="#010101" enable-background="new    " points="746.1,804 701.1,725.8 746.1,648.5 836,648.5 
	880.9,725.8 836,804 "/>
<polygon opacity="0.2" fill="#010101" enable-background="new    " points="896.2,890.3 851.2,813 896.2,734.8 986.1,734.8 
	1031,813 986.1,890.3 "/>
<polygon opacity="0.2" fill="#010101" enable-background="new    " points="284.9,901.1 240,822.9 150.1,822.9 105.2,901.1 
	106.1,902 284.9,902 "/>
<polygon opacity="0.2" fill="#010101" enable-background="new    " points="836.9,823.8 747,823.8 702,902 881.8,902 "/>
<polygon opacity="0.2" fill="#010101" enable-background="new    " points="1135.3,823.8 1044.5,823.8 999.6,902 1180.2,902 "/>
<polygon opacity="0.2" fill="#010101" enable-background="new    " points="240,282.7 284.9,205.4 106.1,205.4 150.1,282.7 "/>
<polygon opacity="0.2" fill="#010101" enable-background="new    " points="836.9,283.6 881.8,205.4 702,205.4 747,283.6 "/>
<polygon opacity="0.2" fill="#010101" enable-background="new    " points="1134.4,283.6 1179.3,205.4 999.6,205.4 1044.5,283.6 "/>
<polygon opacity="5.000000e-002" fill="#010101" enable-background="new    " points="89.9,370.8 134.8,292.6 89.9,215.3 0,215.3 
	0,370.8 "/>
<polygon opacity="0.3" fill="#010101" enable-background="new    " points="88.1,713.3 133,635 88.1,556.8 0,556.8 0,713.3 "/>
<polygon opacity="0.2" fill="#010101" enable-background="new    " points="0,733.9 0,889.4 88.1,889.4 133,812.1 88.1,733.9 "/>
<polygon opacity="0.2" fill="#010101" enable-background="new    " points="88.1,540.7 133,462.5 88.1,384.3 0,384.3 0,540.7 "/>
<polygon opacity="5.000000e-002" fill="#010101" enable-background="new    " points="1154.2,292.6 1199.1,370.8 1200,370.8 
	1200,215.3 1199.1,215.3 "/>
<polygon opacity="0.3" fill="#010101" enable-background="new    " points="1152.4,635 1198.2,713.3 1200,713.3 1200,556.8 
	1198.2,556.8 "/>
<polygon opacity="0.2" fill="#010101" enable-background="new    " points="1198.2,733.9 1153.3,812.1 1198.2,889.4 1200,889.4 
	1200,733.9 "/>
<polygon opacity="0.2" fill="#010101" enable-background="new    " points="1152.4,462.5 1198.2,540.7 1200,540.7 1200,384.3 
	1198.2,384.3 "/>
<polygon opacity="0.3" fill="#010101" enable-background="new    " points="448.5,457.1 402.7,378.9 448.5,301.6 538.4,301.6 
	583.4,378.9 538.4,457.1 "/>
<polygon opacity="0.1" fill="#010101" enable-background="new    " points="596,370.8 551,292.6 596,215.3 686.7,215.3 731.7,292.6 
	686.7,370.8 "/>
<polygon opacity="5.000000e-002" fill="#5D5E5E" enable-background="new    " points="596.9,542.5 551.9,465.2 596.9,387 686.7,387 
	731.7,465.2 686.7,542.5 "/>
<polygon fill="#009688" enable-background="new    " points="595.1,713.3 550.1,635 595.1,557.7 684.9,557.7 729.9,635 684.9,713.3 
	"/>
<polygon opacity="0.2" fill="#010101" enable-background="new    " points="445.8,627.9 400.9,549.7 445.8,471.5 535.7,471.5 
	580.7,549.7 535.7,627.9 "/>
<polygon opacity="0.1" fill="#010101" enable-background="new    " points="595.1,887.6 550.1,809.4 595.1,731.2 684.9,731.2 
	729.9,809.4 684.9,887.6 "/>
<polygon opacity="0.1" fill="#010101" enable-background="new    " points="445.8,801.3 400.9,724 445.8,645.8 535.7,645.8 
	580.7,724 535.7,801.3 "/>
<polygon opacity="0.45" fill="#010101" enable-background="new    " points="581.6,901.1 536.6,822.9 446.7,822.9 401.8,901.1 
	402.7,902 581.6,902 "/>
<polygon opacity="0.45" fill="#010101" enable-background="new    " points="536.6,282.7 581.6,205.4 402.7,205.4 446.7,282.7 "/>
</svg>
