<?xml version="1.0" encoding="utf-8"?>
<!-- Generator: Adobe Illustrator 19.2.0, SVG Export Plug-In . SVG Version: 6.00 Build 0)  -->
<svg version="1.1" id="Layer_1" xmlns="http://www.w3.org/2000/svg" xmlns:xlink="http://www.w3.org/1999/xlink" x="0px" y="0px"
	 viewBox="0 0 1200 691" style="enable-background:new 0 0 1200 691;" xml:space="preserve">
<style type="text/css">
	.st0{opacity:0.45;fill:#010101;enable-background:new    ;}
	.st1{opacity:0.2;fill:#010101;enable-background:new    ;}
	.st2{fill:#D7D7D7;enable-background:new    ;}
	.st3{fill:#FF9800;}
	.st4{fill:#4CAF50;}
	.st5{opacity:0.1;fill:#010101;enable-background:new    ;}
	.st6{opacity:0.3;fill:#010101;enable-background:new    ;}
	.st7{fill:#2F92D0;}
	.st8{fill:#009688;}
	.st9{opacity:5.000000e-02;fill:#010101;enable-background:new    ;}
</style>
<polygon class="st0" points="151.9,248.9 106.1,170.7 151.9,93.4 241.8,93.4 286.7,170.7 241.8,248.9 "/>
<polygon class="st1" points="299.3,162.6 254.4,84.4 299.3,7.1 390.1,7.1 435.1,84.4 390.1,162.6 "/>
<polygon class="st2" points="300.2,334.3 255.3,257 300.2,178.8 390.1,178.8 435.1,257 390.1,334.3 "/>
<polygon class="st0" points="747,423.3 702,345.1 747,267.7 836.9,267.7 881.8,345.1 836.9,423.3 "/>
<polygon class="st1" points="895.3,334.3 850.3,257 895.3,178.8 985.2,178.8 1030.1,257 985.2,334.3 "/>
<polygon class="st1" points="746.1,248.9 701.1,170.7 746.1,93.4 836,93.4 880.9,170.7 836,248.9 "/>
<polygon class="st3" points="895.3,163.5 850.3,85.3 895.3,7.1 985.2,7.1 1030.1,85.3 985.2,163.5 "/>
<polygon class="st4" points="1044.5,249.8 999.6,171.6 1044.5,93.4 1135.3,93.4 1180.2,171.6 1135.3,249.8 "/>
<polygon class="st5" points="895.3,511.3 850.3,433.1 895.3,355.8 985.2,355.8 1030.1,433.1 985.2,511.3 "/>
<polygon class="st1" points="1044.5,595.8 999.6,517.6 1044.5,440.3 1134.4,440.3 1179.3,517.6 1134.4,595.8 "/>
<polygon class="st1" points="1044.5,423.3 999.6,345.1 1044.5,267.7 1135.3,267.7 1180.2,345.1 1135.3,423.3 "/>
<polygon class="st4" points="298.4,505.1 253.5,426.8 298.4,349.5 388.3,349.5 433.3,426.8 388.3,505.1 "/>
<polygon class="st3" points="149.2,419.7 104.3,341.5 149.2,263.3 239.1,263.3 284,341.5 239.1,419.7 "/>
<polygon class="st6" points="298.4,679.4 253.5,601.2 298.4,523 388.3,523 433.3,601.2 388.3,679.4 "/>
<polygon class="st5" points="149.2,593.1 104.3,515.8 149.2,437.6 239.1,437.6 284,515.8 239.1,593.1 "/>
<polygon class="st7" points="746.1,595.8 701.1,517.6 746.1,440.3 836,440.3 880.9,517.6 836,595.8 "/>
<polygon class="st1" points="896.2,682.1 851.2,604.8 896.2,526.6 986.1,526.6 1031,604.8 986.1,682.1 "/>
<polygon class="st1" points="284.9,692.9 240,614.7 150.1,614.7 105.2,692.9 106.1,693.8 284.9,693.8 "/>
<polygon class="st1" points="836.9,615.6 747,615.6 702,693.8 881.8,693.8 "/>
<polygon class="st8" points="1135.3,615.6 1044.5,615.6 999.6,693.8 1180.2,693.8 "/>
<polygon class="st1" points="240,74.5 284.9,-2.8 106.1,-2.8 150.1,74.5 "/>
<polygon class="st1" points="836.9,75.4 881.8,-2.8 702,-2.8 747,75.4 "/>
<polygon class="st8" points="1134.4,75.4 1179.3,-2.8 999.6,-2.8 1044.5,75.4 "/>
<polygon class="st2" points="89.9,162.6 134.8,84.4 89.9,7.1 0,7.1 0,162.6 "/>
<polygon class="st7" points="88.1,505.1 133,426.8 88.1,348.6 0,348.6 0,505.1 "/>
<polygon class="st1" points="0,525.7 0,681.2 88.1,681.2 133,603.9 88.1,525.7 "/>
<polygon class="st1" points="88.1,332.5 133,254.3 88.1,176.1 0,176.1 0,332.5 "/>
<polygon class="st9" points="1154.2,84.4 1199.1,162.6 1200,162.6 1200,7.1 1199.1,7.1 "/>
<polygon class="st6" points="1152.4,426.8 1198.2,505.1 1200,505.1 1200,348.6 1198.2,348.6 "/>
<polygon class="st1" points="1198.2,525.7 1153.3,603.9 1198.2,681.2 1200,681.2 1200,525.7 "/>
<polygon class="st1" points="1152.4,254.3 1198.2,332.5 1200,332.5 1200,176.1 1198.2,176.1 "/>
<polygon class="st8" points="448.5,248.9 402.7,170.7 448.5,93.4 538.4,93.4 583.4,170.7 538.4,248.9 "/>
<polygon class="st5" points="596,162.6 551,84.4 596,7.1 686.7,7.1 731.7,84.4 686.7,162.6 "/>
<polygon class="st2" points="596.9,334.3 551.9,257 596.9,178.8 686.7,178.8 731.7,257 686.7,334.3 "/>
<polygon class="st6" points="595.1,505.1 550.1,426.8 595.1,349.5 684.9,349.5 729.9,426.8 684.9,505.1 "/>
<polygon class="st1" points="445.8,419.7 400.9,341.5 445.8,263.3 535.7,263.3 580.7,341.5 535.7,419.7 "/>
<polygon class="st5" points="595.1,679.4 550.1,601.2 595.1,523 684.9,523 729.9,601.2 684.9,679.4 "/>
<polygon class="st5" points="445.8,593.1 400.9,515.8 445.8,437.6 535.7,437.6 580.7,515.8 535.7,593.1 "/>
<polygon class="st0" points="581.6,692.9 536.6,614.7 446.7,614.7 401.8,692.9 402.7,693.8 581.6,693.8 "/>
<polygon class="st0" points="536.6,74.5 581.6,-2.8 402.7,-2.8 446.7,74.5 "/>
</svg>
