<?xml version="1.0" encoding="utf-8"?>
<!-- Generator: Adobe Illustrator 18.1.1, SVG Export Plug-In . SVG Version: 6.00 Build 0)  -->
<!DOCTYPE svg PUBLIC "-//W3C//DTD SVG 1.1//EN" "http://www.w3.org/Graphics/SVG/1.1/DTD/svg11.dtd">
<svg version="1.1" id="Layer_1" xmlns="http://www.w3.org/2000/svg" xmlns:xlink="http://www.w3.org/1999/xlink" x="0px" y="0px"
	 viewBox="0 209 1200 691" enable-background="new 0 209 1200 691" xml:space="preserve">
<polygon opacity="0.3" fill="#010101" enable-background="new    " points="151.9,457.7 106.1,379.5 151.9,302.2 241.8,302.2 
	286.7,379.5 241.8,457.7 "/>
<polygon opacity="0.2" fill="#010101" enable-background="new    " points="299.3,371.4 254.4,293.2 299.3,215.9 390.1,215.9 
	435.1,293.2 390.1,371.4 "/>
<polygon opacity="5.000000e-002" fill="#010101" enable-background="new    " points="300.2,543.1 255.3,465.8 300.2,387.6 
	390.1,387.6 435.1,465.8 390.1,543.1 "/>
<polygon opacity="0.45" fill="#010101" enable-background="new    " points="747,632.1 702,553.9 747,476.5 836.9,476.5 
	881.8,553.9 836.9,632.1 "/>
<polygon opacity="0.2" fill="#010101" enable-background="new    " points="895.3,543.1 850.3,465.8 895.3,387.6 985.2,387.6 
	1030.1,465.8 985.2,543.1 "/>
<polygon opacity="0.2" fill="#010101" enable-background="new    " points="746.1,457.7 701.1,379.5 746.1,302.2 836,302.2 
	880.9,379.5 836,457.7 "/>
<polygon fill="#4CAF50" points="895.3,372.3 850.3,294.1 895.3,215.9 985.2,215.9 1030.1,294.1 985.2,372.3 "/>
<polygon opacity="0.3" fill="#010101" enable-background="new    " points="1044.5,458.6 999.6,380.4 1044.5,302.2 1135.3,302.2 
	1180.2,380.4 1135.3,458.6 "/>
<polygon opacity="0.1" fill="#010101" enable-background="new    " points="895.3,720.1 850.3,641.9 895.3,564.6 985.2,564.6 
	1030.1,641.9 985.2,720.1 "/>
<polygon opacity="0.2" fill="#010101" enable-background="new    " points="1044.5,804.6 999.6,726.4 1044.5,649.1 1134.4,649.1 
	1179.3,726.4 1134.4,804.6 "/>
<polygon opacity="0.2" fill="#010101" enable-background="new    " points="1044.5,632.1 999.6,553.9 1044.5,476.5 1135.3,476.5 
	1180.2,553.9 1135.3,632.1 "/>
<polygon opacity="0.2" fill="#010101" enable-background="new    " points="298.4,713.9 253.5,635.6 298.4,558.3 388.3,558.3 
	433.3,635.6 388.3,713.9 "/>
<polygon fill="#4CAF50" points="149.2,628.5 104.3,550.3 149.2,472.1 239.1,472.1 284,550.3 239.1,628.5 "/>
<polygon opacity="0.3" fill="#010101" enable-background="new    " points="298.4,888.2 253.5,810 298.4,731.8 388.3,731.8 
	433.3,810 388.3,888.2 "/>
<polygon opacity="0.1" fill="#010101" enable-background="new    " points="149.2,801.9 104.3,724.6 149.2,646.4 239.1,646.4 
	284,724.6 239.1,801.9 "/>
<polygon fill="#4CAF50" points="746.1,804.6 701.1,726.4 746.1,649.1 836,649.1 880.9,726.4 836,804.6 "/>
<polygon opacity="0.2" fill="#010101" enable-background="new    " points="896.2,890.9 851.2,813.6 896.2,735.4 986.1,735.4 
	1031,813.6 986.1,890.9 "/>
<polygon opacity="0.2" fill="#010101" enable-background="new    " points="284.9,901.7 240,823.5 150.1,823.5 105.2,901.7 
	106.1,902.6 284.9,902.6 "/>
<polygon opacity="0.2" fill="#010101" enable-background="new    " points="836.9,824.4 747,824.4 702,902.6 881.8,902.6 "/>
<polygon opacity="0.2" fill="#010101" enable-background="new    " points="1135.3,824.4 1044.5,824.4 999.6,902.6 1180.2,902.6 "/>
<polygon opacity="0.2" fill="#010101" enable-background="new    " points="240,283.3 284.9,206 106.1,206 150.1,283.3 "/>
<polygon opacity="0.2" fill="#010101" enable-background="new    " points="836.9,284.2 881.8,206 702,206 747,284.2 "/>
<polygon opacity="0.2" fill="#010101" enable-background="new    " points="1134.4,284.2 1179.3,206 999.6,206 1044.5,284.2 "/>
<polygon opacity="5.000000e-002" fill="#010101" enable-background="new    " points="89.9,371.4 134.8,293.2 89.9,215.9 0,215.9 
	0,371.4 "/>
<polygon opacity="0.3" fill="#010101" enable-background="new    " points="88.1,713.9 133,635.6 88.1,557.4 0,557.4 0,713.9 "/>
<polygon fill="#4CAF50" points="0,734.5 0,890 88.1,890 133,812.7 88.1,734.5 "/>
<polygon opacity="0.2" fill="#010101" enable-background="new    " points="88.1,541.3 133,463.1 88.1,384.9 0,384.9 0,541.3 "/>
<polygon opacity="5.000000e-002" fill="#010101" enable-background="new    " points="1154.2,293.2 1199.1,371.4 1200,371.4 
	1200,215.9 1199.1,215.9 "/>
<polygon opacity="0.3" fill="#010101" enable-background="new    " points="1152.4,635.6 1198.2,713.9 1200,713.9 1200,557.4 
	1198.2,557.4 "/>
<polygon opacity="0.2" fill="#010101" enable-background="new    " points="1198.2,734.5 1153.3,812.7 1198.2,890 1200,890 
	1200,734.5 "/>
<polygon opacity="0.2" fill="#010101" enable-background="new    " points="1152.4,463.1 1198.2,541.3 1200,541.3 1200,384.9 
	1198.2,384.9 "/>
<polygon opacity="0.3" fill="#010101" enable-background="new    " points="448.5,457.7 402.7,379.5 448.5,302.2 538.4,302.2 
	583.4,379.5 538.4,457.7 "/>
<polygon opacity="0.1" fill="#010101" enable-background="new    " points="596,371.4 551,293.2 596,215.9 686.7,215.9 731.7,293.2 
	686.7,371.4 "/>
<polygon fill="#4CAF50" points="596.9,543.1 551.9,465.8 596.9,387.6 686.7,387.6 731.7,465.8 686.7,543.1 "/>
<polygon opacity="0.3" fill="#010101" enable-background="new    " points="595.1,713.9 550.1,635.6 595.1,558.3 684.9,558.3 
	729.9,635.6 684.9,713.9 "/>
<polygon opacity="0.2" fill="#010101" enable-background="new    " points="445.8,628.5 400.9,550.3 445.8,472.1 535.7,472.1 
	580.7,550.3 535.7,628.5 "/>
<polygon opacity="0.1" fill="#010101" enable-background="new    " points="595.1,888.2 550.1,810 595.1,731.8 684.9,731.8 
	729.9,810 684.9,888.2 "/>
<polygon opacity="0.1" fill="#010101" enable-background="new    " points="445.8,801.9 400.9,724.6 445.8,646.4 535.7,646.4 
	580.7,724.6 535.7,801.9 "/>
<polygon opacity="0.45" fill="#010101" enable-background="new    " points="581.6,901.7 536.6,823.5 446.7,823.5 401.8,901.7 
	402.7,902.6 581.6,902.6 "/>
<polygon opacity="0.45" fill="#010101" enable-background="new    " points="536.6,283.3 581.6,206 402.7,206 446.7,283.3 "/>
</svg>
