<?xml version="1.0" encoding="utf-8"?>
<!-- Generator: Adobe Illustrator 18.1.1, SVG Export Plug-In . SVG Version: 6.00 Build 0)  -->
<!DOCTYPE svg PUBLIC "-//W3C//DTD SVG 1.1//EN" "http://www.w3.org/Graphics/SVG/1.1/DTD/svg11.dtd">
<svg version="1.1" id="Layer_1" xmlns="http://www.w3.org/2000/svg" xmlns:xlink="http://www.w3.org/1999/xlink" x="0px" y="0px"
	 viewBox="0 0 1200 900" enable-background="new 0 0 1200 900" xml:space="preserve">
<path fill="#2B3638" d="M600,0C351.6,0,150,201.6,150,450s201.6,450,450,450s450-201.6,450-450S848.4,0,600,0z M778.2,358.2
	c0,3.6,0,7.2,0,12.6c0,122.4-93.6,262.8-262.8,262.8c-52.2,0-100.8-14.4-142.2-41.4c7.2,0,14.4,1.8,21.6,1.8
	c43.2,0,82.8-14.4,115.2-39.6c-39.6,0-73.8-27-86.4-64.8c5.4,1.8,10.8,1.8,18,1.8c9,0,16.2-1.8,25.2-3.6c-41.4-9-73.8-45-73.8-90
	c0,0,0,0,0-1.8c12.6,7.2,27,10.8,41.4,10.8c-25.2-16.2-41.4-45-41.4-77.4c0-16.2,5.4-32.4,12.6-46.8c45,55.8,113.4,91.8,190.8,97.2
	c-1.8-7.2-1.8-14.4-1.8-21.6c0-50.4,41.4-91.8,91.8-91.8c27,0,50.4,10.8,66.6,28.8c21.6-3.6,41.4-12.6,59.4-21.6
	c-7.2,21.6-21.6,39.6-41.4,50.4c18-1.8,36-7.2,52.2-14.4C812.4,329.4,796.2,345.6,778.2,358.2z"/>
</svg>
